M48
;Layer_Color=9474304
;FILE_FORMAT=4:4
METRIC
;TYPE=PLATED
T1F00S00C0.2000
T2F00S00C0.2032
T3F00S00C0.2540
T4F00S00C0.3048
T5F00S00C0.3302
T6F00S00C0.3556
T7F00S00C0.4064
T8F00S00C0.4572
T9F00S00C0.9000
T10F00S00C1.3000
T11F00S00C3.1750
;TYPE=NON_PLATED
T12F00S00C1.0160
%
T01
X00564723Y01037648
X00574723Y01047148
X00584723Y01037648
X00594723Y01047148
X00604723Y01037648
X00614723Y01047148
X00624723Y01037648
X00634723Y01047148
X00644723Y01037648
X00654723Y01047148
X00664723Y01037648
X00674723Y01047148
X00684723Y01037648
X00694723Y01047148
X00704723Y01037648
X00714723Y01047148
X00724723Y01037648
X00734723Y01047148
X00744723Y01037648
X00754723Y01047148
X00764723Y01037648
X00774723Y01047148
X00784723Y01037648
X00515973Y01086398
X00525473Y01096398
X00515973Y01106398
X00525473Y01116398
X00515973Y01126398
X00525473Y01136398
X00515973Y01146398
X00525473Y01156398
X00515973Y01166398
X00525473Y01176398
X00515973Y01186398
X00825897Y01126957
X00835897Y01126957
X00830897Y01121957
X00835897Y01116957
X00825897Y01116957
X00834723Y01047148
X00824723Y01037648
X00814723Y01047148
X00804723Y01037648
X00794723Y01047148
X00844723Y01037648
X00854723Y01047148
X00864723Y01037648
X00874723Y01047148
X00884723Y01037648
X00894723Y01047148
X00904723Y01037648
X00914723Y01047148
X00924723Y01037648
X00934723Y01047148
X00944723Y01037648
X00954723Y01047148
X00964723Y01037648
X00974723Y01047148
X00984723Y01037648
X00994723Y01047148
X01004723Y01037648
X01014723Y01047148
X01024723Y01037648
X01034723Y01047148
X01044723Y01037648
X01054723Y01047148
X01064723Y01037648
X01074723Y01047148
X01084723Y01037648
X01094723Y01047148
X01104723Y01037648
X01114723Y01047148
X01124723Y01037648
X01134723Y01047148
X01144723Y01037648
X01154723Y01047148
X01164723Y01037648
X01174723Y01047148
X01184723Y01037648
X01187288Y01075916
X01031858Y01117973
X01026858Y01122973
X01031858Y01127973
X01021858Y01127973
X01021858Y01117973
X01195288Y01075916
X01194723Y01047148
X01204723Y01037648
X01214723Y01047148
X01224723Y01037648
X01234723Y01047148
X01244723Y01037648
X01254723Y01047148
X01264723Y01037648
X01274723Y01047148
X01284723Y01037648
X01294723Y01047148
X01304723Y01037648
X01314723Y01047148
X01324723Y01037648
X01384723Y01039398
X01404723
X01424723
X01444723
X01464723
X01484723
X01504723
X01524723
X01544723
X01564723
X01577723Y01045898
X01583250Y01060000
Y01080000
X01575196Y01082796
X01560696
X01546196Y01083046
X01554480Y01097280
X01568513Y01099707
X01583250Y01100000
Y01120000
X01573593Y01117283
X01563248Y01116954
X01552908Y01116489
X01544320Y01117600
X01532876Y01119956
X01525013Y01126686
X01534160Y01137920
X01545946Y01133546
X01560196Y01133296
X01575223Y01133398
X01583250Y01140000
Y01160000
Y01180000
X01554480Y01178560
X01547690Y01177923
X01549077Y01189012
X01530596Y01181533
X01525745Y01171465
X01516050Y01168375
X01514946Y01174618
X01515820Y01185760
X01523473Y01190398
X01527332Y01152587
X01520692Y01149121
X01498092Y01150620
X01498604Y01135133
X01503680Y01117600
X01513208Y01117695
X01518324Y01108697
X01527597Y01104099
X01534160Y01097280
X01513840
X01493520
X01473200
X01452880
X01432560
X01412240
X01391920
X01371600
X01344973Y01100898
X01335473Y01110898
X01344973Y01120898
X01335473Y01130898
X01344973Y01140898
X01335473Y01150898
X01344973Y01160898
X01361440Y01158240
X01381760
X01402080
X01422400
X01442720
X01463040
X01474938Y01164982
X01483196Y01157437
X01493774Y01170736
X01492979Y01177188
X01486769Y01180274
X01452880Y01178560
X01432560
X01412240
X01391920
X01371600
X01344973Y01180898
X01335473Y01170898
X01313288Y01166916
X01304288
X01295288
X01254288
X01244288Y01163916
X01241288Y01074916
X01234288Y01069916
X01295908Y01102145
X01306576
X01301242Y01107606
X01312037Y01107733
X01317625Y01102145
X01361440Y01117600
X01381760
X01402080
X01422400
X01442720
X01463040
X01483360
X01473200Y01137920
X01452880
X01432560
X01412240
X01391920
X01371600
X01402080Y01076960
X01422400
X01442720
X01463040
X01483360
X01503680
X01536581Y01158861
X01543684Y01167489
X01532556Y01193944
X01524000Y01198880
X01510287Y01195470
X01483360Y01198880
X01478415Y01201601
X01487825Y01203985
X01483851Y01214431
X01479978Y01223886
X01462503Y01217765
X01452880Y01219200
X01432560
X01412240
X01391920
X01371600
X01344973Y01220898
X01335473Y01230898
X01344973Y01240898
X01350000Y01245000
X01361440Y01239520
X01381760
X01402080
X01422400
X01423000Y01264000
X01434000
X01442000
X01444624Y01271585
X01452500Y01263250
X01433375Y01286493
X01424940Y01286676
X01417216Y01293183
X01409216
X01401216
Y01301183
X01409216
X01417216Y01301183
Y01317183
Y01325183
X01425216
Y01317183
X01433216
X01433216Y01325183
Y01333183
X01425216
X01417216
X01401216
Y01317183
X01425216Y01309183
X01433216
X01441216
Y01317183
Y01325183
Y01333183
X01457216
X01465216
X01473216
Y01325183
Y01317183
X01465216
X01465216Y01325183
X01457216
X01457216Y01317183
Y01309183
X01465216
X01473216
X01481216
X01489216
X01489216Y01301183
X01481216
X01473216
X01465216Y01301183
X01481216Y01317183
Y01325183
Y01333183
X01489202Y01333158
X01497216
X01497216Y01325183
X01497216Y01317183
X01489216Y01317183
X01489216Y01349183
Y01357183
X01481216
X01481187Y01349962
X01473216Y01349183
X01465216Y01349183
Y01357183
X01457216
X01457216Y01365183
X01465216
X01473216
X01481216
X01489216
X01489216Y01373183
X01481216
X01473216
X01473200Y01381164
Y01389292
X01481216Y01389183
X01489216Y01389183
X01489216Y01381183
X01481328Y01381164
X01465216Y01373183
X01457198Y01381164
X01456466Y01391684
X01462428Y01408364
X01442235Y01407602
X01441216Y01381164
X01441216Y01373183
X01441216Y01365183
X01433216
Y01357183
Y01349183
X01441216Y01349183
X01441216Y01357183
X01425216
X01425216Y01349183
X01417216Y01357183
Y01365183
X01425216
Y01373183
X01433216
X01433322Y01389038
X01425090Y01392489
X01417216Y01389183
X01409216Y01389183
X01401216
X01394879Y01373295
X01383629Y01377538
X01373468Y01377468
X01365191Y01359272
X01365547Y01350788
X01354000Y01351000
Y01359000
X01335473Y01352750
Y01367282
X01341000Y01386750
X01340473Y01416648
X01334973Y01439148
Y01456648
X01344473Y01466648
X01334973Y01476648
X01344473Y01486648
X01334973Y01496648
X01344473Y01506648
X01334973Y01516648
X01325392Y01512101
X01325519Y01523619
Y01534795
X01334973Y01536648
X01344473Y01546648
X01334973Y01556648
X01344473Y01566648
X01334973Y01576648
X01344473Y01586648
X01395000Y01580000
X01420000
X01440000
X01457223Y01577898
X01470000Y01570000
X01473200Y01584960
X01480000Y01580000
X01493520Y01584960
X01507252Y01572339
X01498767Y01563854
X01515738
X01507252Y01555369
X01524223
Y01538398
X01524000Y01524000
X01515491Y01525309
X01503680Y01524000
X01480000Y01520000
X01470000Y01530000
Y01510000
X01449832Y01511808
Y01528826
X01451610Y01559814
X01425956
X01470000Y01550000
X01480000Y01540000
X01493520Y01544320
X01515738Y01546883
X01532708Y01546883
X01551178Y01542542
X01552194Y01552956
X01570736Y01556004
X01570990Y01545844
X01569466Y01534668
X01565910Y01524762
X01559560Y01511808
X01564427Y01504000
X01574800Y01503680
X01583250Y01500000
Y01480000
X01566164Y01478534
X01563116Y01486662
X01561414Y01494765
X01537437Y01494739
X01535059Y01504000
X01541526Y01512824
X01533000Y01520000
X01547368Y01531620
X01583250Y01540000
Y01520000
Y01560000
Y01580000
X01574800Y01584960
X01565656Y01576324
X01566672Y01564640
X01554480Y01584960
X01544723Y01584148
X01480000Y01560000
Y01480000
Y01460000
X01493520Y01463040
X01513840
X01535684Y01462786
Y01454404
Y01473200
X01535938Y01481836
X01503680Y01483360
Y01442720
X01554988Y01440688
X01553972Y01449578
X01570335Y01449420
X01569311Y01460996
X01574800Y01463040
X01583250Y01460000
Y01440000
X01572042Y01437926
X01573144Y01426358
X01573756Y01414754
Y01403133
X01572834Y01391549
X01569808Y01380330
X01583250Y01380000
Y01400000
Y01420000
X01555750Y01420368
X01558244Y01414770
X01555750Y01409192
X01546723Y01409148
X01555750Y01429766
X01568196Y01469136
X01564704Y01369890
X01564640Y01361440
X01583250Y01360000
Y01340000
X01573000Y01338000
X01575000Y01330000
X01577000Y01322000
X01583250Y01320000
Y01300000
Y01280000
Y01260000
Y01240000
Y01220000
Y01200000
X01551248Y01199648
X01553299Y01210634
X01554898Y01221695
X01555900Y01232826
X01556239Y01243997
X01556145Y01255173
X01553956Y01266132
X01548909Y01276104
X01541138Y01284136
X01550000Y01292000
X01558000
X01566000
X01549000Y01300000
X01553000Y01308000
X01535000Y01299000
X01538385Y01260265
X01539713Y01249168
X01539521Y01237993
X01538804Y01226841
X01537361Y01215758
X01535355Y01204763
X01461989Y01206601
X01461743Y01195428
X01442720Y01198880
X01422400
X01402080
X01381760
X01361440
X01344973Y01200898
X01335473Y01190898
Y01210898
Y01250898
Y01260000
X01325000Y01261000
X01323000Y01272000
X01321000Y01283000
X01335250Y01285000
X01345750Y01290000
Y01275000
Y01312234
X01335473
X01317000Y01311984
X01345750Y01335190
X01373468Y01333596
X01383629Y01333288
X01394879Y01357788
X01409192Y01349414
X01417216Y01373183
X01473216Y01357183
X01526794Y01358206
X01538224Y01365758
X01544223Y01373148
X01520750Y01380250
X01560500Y01334000
X01509000Y01277000
X01483586Y01279282
X01407216Y01286933
X01371891Y01309116
X01317000Y01252000
X01264016Y01265000
Y01274000
X01256000Y01270000
Y01278000
Y01261000
X01191372Y01258989
X01191332Y01268895
X01193800Y01284390
Y01294550
Y01304710
X01203960Y01304456
Y01294042
X01203900Y01284550
X01204214Y01315124
X01203960Y01324522
X01193392Y01314804
X01193800Y01344588
X01194054Y01354494
X01203706
X01205992Y01349414
X01220470Y01349160
X01220216Y01357122
X01230757
X01230630Y01349160
X01230492Y01331909
X01220332Y01331899
X01220582Y01373703
X01230742Y01373743
X01240012Y01373662
X01253871Y01372743
X01231042Y01401158
X01220882Y01401282
X01209548Y01402246
X01203900Y01394551
X01203960Y01384720
X01194054
Y01394626
Y01414438
X01203960
X01193900Y01425059
X01193800Y01434504
X01222375Y01447927
X01231392
X01236810Y01465571
X01278730Y01461480
X01278750Y01455250
X01268750Y01480000
X01318014Y01517689
X01317887Y01529207
X01344473Y01526648
X01390904Y01528064
X01403604
X01404366Y01486154
X01397762Y01477772
X01411224Y01477518
X01389888Y01485646
X01422146Y01458380
X01456436Y01474724
X01462532Y01484376
X01449578
X01183894Y01456055
X01188847Y01447165
X01183900Y01425059
X01173900Y01424551
X01163900
Y01414551
X01153901
X01143901
Y01404551
X01153901
Y01394551
Y01384551
X01143901
Y01394551
X01133900
Y01384551
Y01374551
X01153901
X01163900
X01173900
X01183900
Y01384551
Y01394551
Y01404043
Y01414551
X01173900
X01163900Y01404551
Y01394551
Y01384551
X01173900
X01173988Y01394626
X01173900Y01354550
X01183900
Y01344550
Y01334550
X01174408Y01334804
X01173900Y01344550
X01163900
Y01354550
X01153901
X01143901
Y01344550
X01153139Y01344804
Y01334804
X01143901Y01334550
Y01324550
Y01314550
X01153901
X01163138
X01163646Y01324296
X01163828Y01334428
X01174154Y01324550
X01183948Y01324838
Y01314227
X01173846Y01314277
X01173900Y01303788
X01173988Y01294550
X01178814Y01281850
X01168908
X01167003Y01263689
X01171956Y01259244
X01175385Y01250354
X01162558Y01250481
X01158122Y01256139
X01158032Y01266299
X01134100Y01273800
X01129030Y01282612
X01118870
X01124000Y01294750
X01133750Y01294500
X01133900Y01314550
Y01324550
Y01334550
Y01344550
X01113900
X01103900
X01093900
X01083900
X01073900
X01063900
Y01334550
X01073900
X01083900
X01093900
Y01324550
Y01314550
Y01304550
X01103900
X01113850Y01304600
X01113900Y01314550
Y01324550
Y01334550
X01103900
Y01324550
X01083900
Y01314550
X01073900
Y01324550
X01063900
Y01314042
Y01304550
X01053900
Y01294042
X01063752Y01282612
X01093900Y01284550
X01083900Y01304550
X01073900
Y01354550
X01063900
X01083900
X01093900
X01103900
X01113900
Y01374551
Y01384551
Y01394551
X01103900
X01093900
X01083900
X01073900
Y01384551
Y01374551
X01064006Y01374560
X01063900Y01384551
Y01394551
Y01404043
X01073900Y01404551
X01083900
X01093900
X01103900
X01113900
X01103900Y01414551
X01093900
X01083900
X01084154Y01424551
X01093900
X01103645
X01114154
X01113900Y01434551
X01133646Y01424551
Y01414551
X01133900Y01404551
X01144155Y01424551
X01153901Y01434504
X01153901Y01444551
X01163900Y01455350
X01158900Y01460900
X01166082Y01463799
X01165822Y01473959
X01127690Y01475810
X01127950Y01465650
X01089882Y01459749
X01089712Y01473719
X01055624Y01470152
X01055782Y01459399
X01043900Y01444551
X01021982Y01451999
X01010582
X00986100Y01452150
X00981202Y01462444
X01013795Y01424066
X01027400Y01428242
X01027000Y01401000
X01019050Y01401568
X01015172Y01396939
X01008799Y01401568
X01005800Y01393750
X01033750Y01394950
X01053900Y01414551
X01063900Y01414805
Y01424551
X01073646
X01073900Y01414805
X01083900Y01384551
Y01374551
X01093900
X01103900
X01104000Y01384450
X01093900Y01384551
X01040384Y01359320
X01025532Y01357149
X01015372Y01357189
X01004850Y01332000
X00995951Y01330685
X00981497
X01031900Y01334350
X01043913Y01334386
X01053846Y01334682
X01030082Y01281999
X01020318Y01282358
X01120659Y01243953
X01120137Y01229983
X01143901Y01237793
X01139698Y01248068
X01153901Y01304550
X01163900
X01183900Y01303788
X00876000Y01244000
X00806704Y01228598
Y01208024
X00822452Y01473620
X00843744Y01467506
X00835406Y01501052
X00790448Y01463456
X00768180Y01466090
X00752094Y01430020
Y01419860
X00735580
Y01430020
X00711708
Y01419860
X00713680Y01441340
X00706680
X00715772Y01453642
X00709676Y01484122
X00687070Y01431290
X00686816Y01421130
X00690180Y01391340
X00682180
Y01375340
X00682180Y01367340
Y01359340
Y01351340
X00682180Y01343340
X00690180
X00698180
Y01335340
X00690180
Y01351340
X00698180
X00706180
Y01359340
X00690180
Y01367340
Y01375340
X00706180
Y01383340
X00698180
X00706180Y01391340
X00722180Y01391340
Y01383340
X00730180
X00738180
Y01375340
X00730180
X00722180Y01375340
Y01359340
Y01351340
Y01343340
Y01335340
X00730180Y01335340
Y01343340
X00738180
Y01351340
Y01359340
X00730180
Y01351340
X00746180
Y01359340
Y01375340
Y01383340
Y01391340
X00738180
X00730180
X00730250Y01399198
X00729742Y01407072
X00762181Y01407341
X00776732Y01392174
X00786892
X00784860Y01365504
X00774700
X00762180Y01359340
X00762508Y01343318
X00762180Y01335340
Y01327340
X00754180Y01335340
X00746180
X00738180
X00746180Y01343340
X00754180
X00730180Y01319340
X00729742Y01306068
X00729234Y01296162
X00716430Y01298590
X00716534Y01308354
X00699008Y01312584
X00695452Y01307250
X00699262Y01301662
X00680750Y01308100
X00674180Y01319340
Y01327340
X00682180
X00706180Y01335340
X00706180Y01343340
X00722122Y01327316
X00710430Y01285090
X00716026Y01278802
X00715930Y01254590
X00720973Y01248398
X00710723
X00732000Y01244000
X00757858Y01264270
X00768289Y01266114
X00769730Y01256000
X00777000Y01252000
X00779000Y01262000
X00786000Y01258000
X00788924Y01266610
X00778510Y01283340
X00637430Y01318590
X00635430Y01372090
X00652780Y01408176
X00662940
X00638810Y01464818
X00615000Y01480000
Y01490000
Y01500000
X00605000Y01495000
Y01505000
X00595000
X00585000
X00575000
Y01495000
X00585000
X00595000
X00605000Y01485000
Y01475000
X00515223Y01477148
X00524723Y01487148
X00515223Y01497148
X00524723Y01507148
X00515223Y01517148
X00524723Y01527148
X00515223Y01537148
X00524723Y01547148
X00515223Y01557148
X00524723Y01567148
X00515223Y01577148
X00524723Y01587148
X00778327Y01560426
X00595702Y01351760
X00572052Y01352070
X00515973Y01306398
X00525473Y01296398
X00515973Y01286398
X00525473Y01276398
X00515973Y01266398
X00525473Y01256398
X00515973Y01246398
X00525473Y01236398
X00515973Y01226398
X00525473Y01216398
X00515973Y01206398
X00525473Y01196398
X00614220Y01252220
X00515223Y01597148
X00524723Y01607148
X00515223Y01617148
X00524723Y01627148
X00515223Y01637148
X00524723Y01647148
X00515223Y01657148
X00524723Y01667148
X00515223Y01677148
X00570473Y01726148
X00580473Y01716648
X00590473Y01726148
X00600473Y01716648
X00610473Y01726148
X00620473Y01716648
X00630473Y01726148
X00640473Y01716648
X00650473Y01726148
X00660473Y01716648
X00670473Y01726148
X00680473Y01716648
X00690473Y01726148
X00700473Y01716648
X00710473Y01726148
X00720473Y01716648
X00730473Y01726148
X00740473Y01716648
X00750473Y01726148
X00760473Y01716648
X00770473Y01726148
X00780473Y01716648
X00790473Y01726148
X00766739Y01627338
X00794157Y01637132
X00855739Y01627338
X00860473Y01716648
X00850473Y01726148
X00840473Y01716648
X00830473Y01726148
X00820473Y01716648
X00810473Y01726148
X00800473Y01716648
X00870473Y01726148
X00880473Y01716648
X00890473Y01726148
X00900473Y01716648
X00910473Y01726148
X00920473Y01716648
X00930473Y01726148
X00940473Y01716648
X00950473Y01726148
X00960473Y01716648
X00970473Y01726148
X00980473Y01716648
X00990473Y01726148
X01000473Y01716648
X01010473Y01726148
X01020473Y01716648
X01030473Y01726148
X01040473Y01716648
X01050473Y01726148
X01060473Y01716648
X01070473Y01726148
X01080473Y01716648
X01090473Y01726148
X01100473Y01716648
X01110473Y01726148
X01120473Y01716648
X01130473Y01726148
X01140473Y01716648
X01150473Y01726148
X01160473Y01716648
X01170473Y01726148
X01180473Y01716648
X01190473Y01726148
X01200473Y01716648
X01210473Y01726148
X01220473Y01716648
X01230473Y01726148
X01240473Y01716648
X01250473Y01726148
X01260473Y01716648
X01270473Y01726148
X01280473Y01716648
X01290473Y01726148
X01300473Y01716648
X01310473Y01726148
X01320473Y01716648
X01330473Y01726148
X01384723Y01723648
X01404723
X01405000Y01705000
X01395000Y01700000
Y01685000
Y01670000
Y01655000
Y01640000
Y01628000
Y01608750
Y01595000
X01334973Y01596648
X01344473Y01606648
X01334973Y01616648
X01344473Y01626648
X01334973Y01636648
X01344473Y01646648
X01334973Y01656648
X01344473Y01666648
X01430000Y01705000
X01450000
X01444723Y01723648
X01464723
X01484723
X01504723
X01524723
X01544723
X01554973Y01715398
X01564723Y01723648
X01579723Y01716898
X01583250Y01680000
X01583473Y01666898
X01574800Y01666240
X01568223Y01679898
X01553973Y01680148
X01554480Y01666240
X01533223Y01663148
X01523473Y01656148
X01515723Y01646648
X01503680Y01645920
X01503426Y01629410
X01512824Y01633982
X01512570Y01623568
Y01613408
X01515618Y01594104
X01532890Y01607566
X01531620Y01616964
X01530858Y01626616
X01535684Y01637284
X01544320Y01645920
X01564640
X01568723Y01629398
X01583223
X01583250Y01640000
X01554223Y01629648
X01540002Y01602486
X01583223Y01596148
X01483360Y01605280
X01463040
X01464500Y01623000
X01463040Y01645920
X01483360
X01493520Y01666240
X01513840
X01524000Y01686560
X01503680
X01483360
X01463040
X01473200Y01666240
X01424723Y01723648
T02
X00615223Y01184398
X00860107Y01151167
X00828397Y01098502
X01024358Y01099438
X01057338Y01151548
X00762254Y01288796
X00762000Y01302766
X00743712Y01303020
X00742950Y01289558
X00774446Y01348232
X00784606
X00596138Y01404874
X00578090Y01486500
X00580517Y01272198
X00578696Y01215100
X00554176
X00603466Y01214850
T03
X00865568Y01132879
X01056703Y01137578
X01102465Y01152640
X01128973Y01140648
X01254788Y01112916
Y01101916
X01265788
Y01112916
X01272000Y01219500
X01283000
Y01230500
X01272000
X01305814Y01451014
X01284605Y01523277
X01201420Y01524420
X01517142Y01269023
X01520973Y01261398
X01564005Y01284005
X01093150Y01271500
X01093216Y01263562
X01066042Y01259589
X01066232Y01269749
X01080223Y01203148
X00903223Y01556148
X00785223Y01499398
X00697473Y01289898
X00698223Y01264148
X00685573Y01264048
X00641193Y01206178
X00627223Y01206148
X00931469Y01675626
X00947471
X00963473
X00979475
X00995477
X01011479
X01027481
X01043483
X01059485
X01075487
X01131494Y01675245
X01147496
X01163498
X01179500
X01195502
X01211504
X01227506
X01243508
X01259510
X01275512
T04
X00733679Y01157517
Y01166915
X00743839Y01167042
Y01157263
X00799147Y01151167
X00808037
X00814387Y01090842
Y01083222
X00823277
Y01090842
X00804862Y01083222
X00795337
X00990673Y01082648
X01000198
X01009723
Y01090268
X01018613
Y01082648
X01003871Y01152056
X00994981
X01461008Y01182116
X01489000Y01138000
X01479920Y01232920
X01454080
X01534939Y01220939
X01524006Y01208006
X01534115Y01265115
X01360170Y01284170
X01283462Y01571029
Y01578649
X00924306Y01523150
Y01509688
X00816770Y01504930
X00816680Y01515090
X00841689Y01574338
X00796732Y01217698
X00768538Y01214142
Y01221254
X00759140
Y01214142
X00743646Y01239288
X00669000Y01290000
X00621040Y01330960
X00633060Y01381220
X00596930Y01376090
X00574802Y01401318
X00548386Y01252259
X00609689Y01584288
X00725424Y01516834
X00745500Y01468840
X00922723Y01639898
X00918223Y01653898
X00939223
X00955195
X00971167
X00987140
X01003112
X01019084
X01035056
X01051028
X01067001
X01082973
X01094973Y01652648
X01104223Y01643398
X01114223Y01652648
X01139723Y01655898
X01155695
X01171667
X01187639
X01150473Y01613148
X01140473
X01130473
X01135473Y01605148
X01145473Y01605648
X01155473Y01605648
X01203612Y01655898
X01219584
X01235556
X01251528
X01267501
X01283473
X01293973Y01642898
Y01632898
Y01622898
T05
X01106171Y01236579
X01106249Y01250549
X01112989Y01259739
X01112549Y01269899
X00601599Y01232828
X00706374Y01525270
T06
X00734441Y01107098
Y01118465
Y01129831
X00746125
Y01118465
X00745871Y01107098
X00864489Y01077761
X00875326
X00886163
X00897001
X00917321Y01133768
Y01145135
Y01156501
X00929005
Y01145135
X00928751Y01133768
X01062842Y01077380
X01073679
X01084516
X01095354
X01080900Y01185300
X01149604Y01153580
X01161415Y01143547
X01177925
X01190038Y01133416
Y01123916
Y01114416
X01200150Y01123862
X01191006Y01153580
X01192723Y01221648
X01208500Y01229500
X01223750Y01216500
X01233750
X01243500
X01256050Y01466850
X01276650Y01485680
X01247130Y01515200
X01226350Y01495900
X01207729Y01501829
X01208141Y01481509
X01461246Y01460754
X01514600Y01454000
X00981542Y01431812
X00988150Y01391750
X01060526Y01214740
X01060156Y01194420
X01080750Y01213300
X01124966Y01213016
X01154811Y01212762
X01165648
X01176486
X01187323
X01181862Y01221652
X01171025
X01160187
Y01203491
X01171025
X01181862
X00659590Y01291590
X00610330Y01296670
X00602680Y01391090
X00634000Y01415000
X00554970Y01475880
X00532930Y01474340
X00690723Y01513148
X00725000Y01465000
X00820739Y01695838
X01493000Y01634000
T07
X00938800Y01412500
X00959500Y01392050
X01121349Y01484151
X01099082Y01507268
X01144532
X01143668Y01571268
X01099532
X01121349Y01594301
T08
X01422654Y01666914
X01441196Y01677963
X01429639Y01692822
T09
X00833628Y01193800
Y01219200
X00859028
Y01193800
X00884428
Y01219200
X00909828
Y01193800
X00935228
Y01219200
X00960628
Y01193800
X00986028
Y01219200
X01011428
Y01193800
X01001871Y01553464
Y01573464
X01021871
Y01553464
X01041871
Y01573464
X00981871
X00961871
X00941871
X00941871Y01553464
X00961871
X00981871Y01553464
X00921871
Y01573464
X00679958Y01558544
X00654558
X00629158
X00603758
X00578358
Y01533144
X00603758
X00629158
X00654558
X00679958
T10
X00526208Y01329524
Y01455024
T11
X00539973Y01062148
X01359973
X00539973Y01702148
X01359973
T12
X00906831Y01689604
X01308151Y01689391
M30
