G04 Layer_Color=16711935*
%FSAX44Y44*%
%MOMM*%
G71*
G01*
G75*
%ADD119C,0.7366*%
%ADD147C,2.0000*%
%ADD149C,3.0000*%
%ADD150R,0.8890X0.8890*%
%ADD156R,1.3970X1.1430*%
%ADD157R,0.8890X0.8890*%
%ADD161R,0.6350X0.7620*%
%ADD163R,0.7620X0.6350*%
%ADD191P,1.2572X4X270.0*%
G04:AMPARAMS|DCode=198|XSize=0.762mm|YSize=0.635mm|CornerRadius=0mm|HoleSize=0mm|Usage=FLASHONLY|Rotation=135.000|XOffset=0mm|YOffset=0mm|HoleType=Round|Shape=Rectangle|*
%AMROTATEDRECTD198*
4,1,4,0.4939,-0.0449,0.0449,-0.4939,-0.4939,0.0449,-0.0449,0.4939,0.4939,-0.0449,0.0*
%
%ADD198ROTATEDRECTD198*%

%ADD211R,1.6270X1.6270*%
%ADD218R,4.9530X2.5400*%
%ADD219C,0.1270*%
%ADD220R,1.6270X1.6270*%
%ADD221C,1.6270*%
%ADD222C,1.9270*%
%ADD223C,5.8420*%
%ADD224R,1.0270X1.0770*%
%ADD225R,1.5270X1.3270*%
G04:AMPARAMS|DCode=226|XSize=1.143mm|YSize=1.397mm|CornerRadius=0mm|HoleSize=0mm|Usage=FLASHONLY|Rotation=315.000|XOffset=0mm|YOffset=0mm|HoleType=Round|Shape=Rectangle|*
%AMROTATEDRECTD226*
4,1,4,-0.8980,-0.0898,0.0898,0.8980,0.8980,0.0898,-0.0898,-0.8980,-0.8980,-0.0898,0.0*
%
%ADD226ROTATEDRECTD226*%

%ADD227R,1.1430X1.3970*%
G04:AMPARAMS|DCode=228|XSize=0.762mm|YSize=0.635mm|CornerRadius=0mm|HoleSize=0mm|Usage=FLASHONLY|Rotation=225.000|XOffset=0mm|YOffset=0mm|HoleType=Round|Shape=Rectangle|*
%AMROTATEDRECTD228*
4,1,4,0.0449,0.4939,0.4939,0.0449,-0.0449,-0.4939,-0.4939,-0.0449,0.0449,0.4939,0.0*
%
%ADD228ROTATEDRECTD228*%

G04:AMPARAMS|DCode=229|XSize=1.327mm|YSize=1.527mm|CornerRadius=0mm|HoleSize=0mm|Usage=FLASHONLY|Rotation=135.000|XOffset=0mm|YOffset=0mm|HoleType=Round|Shape=Rectangle|*
%AMROTATEDRECTD229*
4,1,4,1.0090,0.0707,-0.0707,-1.0090,-1.0090,-0.0707,0.0707,1.0090,1.0090,0.0707,0.0*
%
%ADD229ROTATEDRECTD229*%

%ADD230R,1.0770X1.0270*%
%ADD231R,2.1770X3.1770*%
%ADD232O,0.9770X0.4270*%
%ADD233O,0.4270X0.9770*%
%ADD234O,0.7270X1.8270*%
%ADD235C,0.5271*%
%ADD236C,0.7874*%
%ADD237C,0.6350*%
%ADD238C,0.5842*%
%ADD239C,0.8382*%
%ADD240C,0.6270*%
%ADD241C,0.5334*%
%ADD242C,0.8890*%
%ADD243C,0.6858*%
G36*
X01591223Y01710648D02*
X01541473D01*
Y01732148D01*
X01591223D01*
Y01710648D01*
D02*
G37*
G36*
X01389223Y01702148D02*
X01359723Y01672648D01*
X01330473D01*
Y01732148D01*
X01389223D01*
Y01702148D01*
D02*
G37*
G36*
X00569473D02*
X00539973Y01672648D01*
X00509973D01*
Y01732148D01*
X00569473D01*
Y01702148D01*
D02*
G37*
G36*
X01591223Y01032148D02*
X01541473D01*
Y01055398D01*
X01591223D01*
Y01032148D01*
D02*
G37*
G36*
X01389473Y01062148D02*
Y01032148D01*
X01330723D01*
Y01091648D01*
X01359973D01*
X01389473Y01062148D01*
D02*
G37*
G36*
X00569473D02*
Y01032148D01*
X00509973D01*
Y01091648D01*
X00539973D01*
X00569473Y01062148D01*
D02*
G37*
D119*
X01149604Y01153580D02*
D03*
X01191006D02*
D03*
X01177925Y01143547D02*
D03*
X01161415D02*
D03*
X00746125Y01129831D02*
D03*
X00734441D02*
D03*
Y01118465D02*
D03*
X00746125D02*
D03*
X00745871Y01107098D02*
D03*
X00734441D02*
D03*
X00917321Y01133768D02*
D03*
X00928751D02*
D03*
X00929005Y01145135D02*
D03*
X00917321D02*
D03*
Y01156501D02*
D03*
X00929005D02*
D03*
X01160187Y01221652D02*
D03*
X01181862D02*
D03*
X01171025D02*
D03*
X01165648Y01212762D02*
D03*
X01187323D02*
D03*
X01176486D02*
D03*
X01154811D02*
D03*
X01160187Y01203491D02*
D03*
X01181862D02*
D03*
X01171025D02*
D03*
X01062842Y01077380D02*
D03*
X01084516D02*
D03*
X01095354D02*
D03*
X01073679D02*
D03*
X00875326Y01077761D02*
D03*
X00897001D02*
D03*
X00886163D02*
D03*
X00864489D02*
D03*
X00924306Y01509688D02*
D03*
Y01523150D02*
D03*
X01192723Y01221648D02*
D03*
D147*
X01581573Y01162648D02*
Y01604398D01*
X01340606Y01497898D02*
Y01722148D01*
Y01042148D02*
Y01266398D01*
X01340739Y01722265D02*
X01581785D01*
X00519973D02*
X01340739D01*
X00519973Y01478898D02*
Y01722265D01*
Y01042074D02*
X01581223D01*
X00519973D02*
Y01305898D01*
D149*
X01369973Y01652148D02*
D03*
X00549973Y01112148D02*
D03*
Y01652148D02*
D03*
D150*
X01510411Y01489114D02*
D03*
X01524381D02*
D03*
X01482090Y01501687D02*
D03*
X01496060D02*
D03*
X01517523Y01125513D02*
D03*
X01503553D02*
D03*
X01493622Y01188390D02*
D03*
X01479652D02*
D03*
X01466139Y01172892D02*
D03*
X01480109D02*
D03*
X01551500Y01346500D02*
D03*
X01537530D02*
D03*
X00571500Y01252220D02*
D03*
X00557530D02*
D03*
X00603250D02*
D03*
X00589280D02*
D03*
X01027600Y01384050D02*
D03*
X01013630D02*
D03*
X01015294Y01444853D02*
D03*
X01029264D02*
D03*
X01071693Y01204648D02*
D03*
X01057723D02*
D03*
X00627253Y01195648D02*
D03*
X00641223D02*
D03*
D156*
X01535750Y01330030D02*
D03*
Y01309710D02*
D03*
X00567180Y01455560D02*
D03*
Y01475880D02*
D03*
X00646684Y01311656D02*
D03*
Y01291336D02*
D03*
X00624840Y01316990D02*
D03*
Y01296670D02*
D03*
D157*
X01504188Y01173900D02*
D03*
Y01159930D02*
D03*
X01496695Y01242099D02*
D03*
Y01228129D02*
D03*
X01564005Y01193204D02*
D03*
Y01179234D02*
D03*
X00947801Y01516292D02*
D03*
Y01530262D02*
D03*
X00935101Y01516292D02*
D03*
Y01530262D02*
D03*
X01510538Y01502449D02*
D03*
Y01516419D02*
D03*
X01549273Y01474763D02*
D03*
Y01488733D02*
D03*
X01558750Y01385500D02*
D03*
Y01399470D02*
D03*
X01544750Y01385500D02*
D03*
Y01399470D02*
D03*
X01530500Y01385500D02*
D03*
Y01399470D02*
D03*
X01564973Y01319648D02*
D03*
Y01305678D02*
D03*
X01552250Y01332250D02*
D03*
Y01318280D02*
D03*
X00990132Y01479599D02*
D03*
X00990132Y01465629D02*
D03*
X00554176Y01161506D02*
D03*
Y01175476D02*
D03*
X00578696Y01190716D02*
D03*
Y01204686D02*
D03*
X00603466Y01190466D02*
D03*
Y01204436D02*
D03*
X00554176Y01190716D02*
D03*
Y01204686D02*
D03*
X00578696Y01161506D02*
D03*
Y01175476D02*
D03*
X00545180Y01474340D02*
D03*
Y01460370D02*
D03*
X00603466Y01161256D02*
D03*
Y01175226D02*
D03*
X01011301Y01516292D02*
D03*
Y01530262D02*
D03*
X00985901Y01516292D02*
D03*
Y01530262D02*
D03*
X00960501Y01516292D02*
D03*
Y01530262D02*
D03*
X00973201Y01516292D02*
D03*
Y01530262D02*
D03*
X00998601Y01516292D02*
D03*
Y01530262D02*
D03*
X01024001Y01516292D02*
D03*
Y01530262D02*
D03*
X01097382Y01250549D02*
D03*
Y01236579D02*
D03*
D161*
X01107992Y01338128D02*
D03*
Y01348288D02*
D03*
X01522832Y01515567D02*
D03*
Y01505407D02*
D03*
X01491234Y01163867D02*
D03*
Y01153707D02*
D03*
X01495806Y01213016D02*
D03*
Y01202856D02*
D03*
X01457070Y01303716D02*
D03*
Y01293556D02*
D03*
X01434732Y01302933D02*
D03*
Y01292773D02*
D03*
X01424216Y01302933D02*
D03*
Y01292773D02*
D03*
X01102412Y01286379D02*
D03*
Y01296539D02*
D03*
X01141500Y01295090D02*
D03*
Y01305250D02*
D03*
X01145912Y01442949D02*
D03*
Y01432789D02*
D03*
X01157892Y01380752D02*
D03*
Y01390912D02*
D03*
X01137842Y01380648D02*
D03*
Y01390808D02*
D03*
X01108900Y01429711D02*
D03*
Y01419551D02*
D03*
X01097992Y01378128D02*
D03*
Y01388288D02*
D03*
X00674370Y01311910D02*
D03*
Y01301750D02*
D03*
X00711200Y01308608D02*
D03*
Y01298448D02*
D03*
X00721360Y01308608D02*
D03*
Y01298448D02*
D03*
X00744220Y01419860D02*
D03*
Y01430020D02*
D03*
X00728980Y01419606D02*
D03*
Y01429766D02*
D03*
X00649732Y01458976D02*
D03*
Y01469136D02*
D03*
X00723392Y01473962D02*
D03*
Y01484122D02*
D03*
X00662940Y01314450D02*
D03*
Y01304290D02*
D03*
X01122281Y01345010D02*
D03*
Y01355170D02*
D03*
Y01324510D02*
D03*
Y01334670D02*
D03*
Y01303760D02*
D03*
Y01313920D02*
D03*
Y01374760D02*
D03*
Y01384920D02*
D03*
X01121432Y01259739D02*
D03*
Y01269899D02*
D03*
X01084582Y01259439D02*
D03*
Y01269599D02*
D03*
X01120700Y01475310D02*
D03*
Y01465150D02*
D03*
X01135050Y01475310D02*
D03*
Y01465150D02*
D03*
X01509716Y01299933D02*
D03*
X01509716Y01310093D02*
D03*
X01117473Y01140648D02*
D03*
Y01150808D02*
D03*
D163*
X01557782Y01520991D02*
D03*
X01547622D02*
D03*
X01507840Y01138000D02*
D03*
X01518000D02*
D03*
X01189071Y01319539D02*
D03*
X01178911D02*
D03*
X01488216Y01292683D02*
D03*
X01498376D02*
D03*
X01476494Y01279536D02*
D03*
X01466334D02*
D03*
X01477466Y01292683D02*
D03*
X01467306D02*
D03*
X01506716Y01322183D02*
D03*
X01516876D02*
D03*
X01386965Y01360358D02*
D03*
X01376806D02*
D03*
X01491216Y01280933D02*
D03*
X01501376D02*
D03*
X01388616Y01372169D02*
D03*
X01378457D02*
D03*
X01202072Y01402039D02*
D03*
X01191912D02*
D03*
X01008790Y01408950D02*
D03*
X01018950D02*
D03*
X00662430Y01380090D02*
D03*
X00652270D02*
D03*
X00667430Y01369090D02*
D03*
X00657270D02*
D03*
X00648970Y01342390D02*
D03*
X00638810D02*
D03*
X00641350Y01330960D02*
D03*
X00631190D02*
D03*
X01158822Y01361789D02*
D03*
X01148662D02*
D03*
X01045752Y01326789D02*
D03*
X01055912D02*
D03*
X01058752Y01409539D02*
D03*
X01068912D02*
D03*
X01013990Y01332000D02*
D03*
X01024150D02*
D03*
X01230360Y01362700D02*
D03*
X01220200D02*
D03*
X01230560Y01342200D02*
D03*
X01220400D02*
D03*
X01231042Y01393999D02*
D03*
X01220882D02*
D03*
X01516716Y01333183D02*
D03*
X01506556Y01333183D02*
D03*
X01401443Y01350071D02*
D03*
X01391284D02*
D03*
D191*
X00930922Y01428122D02*
D03*
X00940800Y01438000D02*
D03*
X00962350Y01449000D02*
D03*
X00972228Y01458878D02*
D03*
X00990742Y01411066D02*
D03*
X01000620Y01420944D02*
D03*
X00988688Y01426058D02*
D03*
X00998566Y01435936D02*
D03*
D198*
X01459174Y01267957D02*
D03*
X01451989Y01275141D02*
D03*
D211*
X01076515Y01137705D02*
D03*
X00881316Y01136308D02*
D03*
X00857500Y01471450D02*
D03*
X00835350Y01486350D02*
D03*
X00857650Y01501100D02*
D03*
X00786250Y01451750D02*
D03*
X00762500D02*
D03*
X00628904Y01442212D02*
D03*
D218*
X01566483Y01065943D02*
D03*
Y01151017D02*
D03*
Y01613185D02*
D03*
Y01698260D02*
D03*
D219*
X01308151Y01689391D02*
D03*
X00906831Y01689604D02*
D03*
D220*
X01294892Y01306742D02*
D03*
X00833628Y01193800D02*
D03*
X00679958Y01558544D02*
D03*
D221*
X00833628Y01219200D02*
D03*
X00859028Y01193800D02*
D03*
Y01219200D02*
D03*
X00884428Y01193800D02*
D03*
Y01219200D02*
D03*
X00909828Y01193800D02*
D03*
Y01219200D02*
D03*
X00935228Y01193800D02*
D03*
Y01219200D02*
D03*
X00960628Y01193800D02*
D03*
Y01219200D02*
D03*
X00986028Y01193800D02*
D03*
Y01219200D02*
D03*
X01011428Y01193800D02*
D03*
Y01219200D02*
D03*
X00578358Y01533144D02*
D03*
Y01558544D02*
D03*
X00603758Y01533144D02*
D03*
Y01558544D02*
D03*
X00629158Y01533144D02*
D03*
Y01558544D02*
D03*
X00654558Y01533144D02*
D03*
Y01558544D02*
D03*
X00679958Y01533144D02*
D03*
X00921871Y01553464D02*
D03*
Y01573464D02*
D03*
X00941871Y01553464D02*
D03*
X00941871Y01573464D02*
D03*
X00961871Y01553464D02*
D03*
X00961871Y01573464D02*
D03*
X00981871Y01553464D02*
D03*
Y01573464D02*
D03*
X01001871Y01553464D02*
D03*
Y01573464D02*
D03*
X01021871Y01553464D02*
D03*
Y01573464D02*
D03*
X01041871Y01553464D02*
D03*
Y01573464D02*
D03*
D222*
X00526208Y01455024D02*
D03*
Y01329524D02*
D03*
D223*
X01359973Y01062148D02*
D03*
X00539973Y01702148D02*
D03*
Y01062148D02*
D03*
X01359973Y01702148D02*
D03*
D224*
X00706120Y01534800D02*
D03*
Y01551300D02*
D03*
D225*
X01010612Y01481840D02*
D03*
X01032612Y01481840D02*
D03*
Y01462839D02*
D03*
X01010612Y01462839D02*
D03*
D226*
X00626002Y01367768D02*
D03*
X00611634Y01382136D02*
D03*
D227*
X00653710Y01394590D02*
D03*
X00633390D02*
D03*
D228*
X00692930Y01328148D02*
D03*
X00685746Y01320964D02*
D03*
D229*
X00684805Y01446131D02*
D03*
X00700361Y01461687D02*
D03*
X00672784Y01458152D02*
D03*
X00688340Y01473708D02*
D03*
D230*
X00785223Y01508648D02*
D03*
X00801723D02*
D03*
D231*
X01109973Y01185648D02*
D03*
D232*
X01092723Y01203148D02*
D03*
Y01198148D02*
D03*
Y01193148D02*
D03*
Y01188148D02*
D03*
X01127223D02*
D03*
Y01193148D02*
D03*
Y01198148D02*
D03*
Y01203148D02*
D03*
X01092723Y01168148D02*
D03*
Y01173148D02*
D03*
Y01178148D02*
D03*
Y01183148D02*
D03*
X01127223Y01168148D02*
D03*
Y01173148D02*
D03*
Y01178148D02*
D03*
Y01183148D02*
D03*
D233*
X01102465Y01163398D02*
D03*
X01117465D02*
D03*
X01117467Y01207898D02*
D03*
X01102467D02*
D03*
D234*
X00660173Y01246398D02*
D03*
X00672873D02*
D03*
X00685573D02*
D03*
X00698273D02*
D03*
X00660173Y01174898D02*
D03*
X00672873D02*
D03*
X00685573D02*
D03*
X00698273D02*
D03*
D235*
X01544320Y01117600D02*
D03*
X01554480Y01097280D02*
D03*
X01524000Y01198880D02*
D03*
X01534160Y01137920D02*
D03*
Y01097280D02*
D03*
X01503680Y01117600D02*
D03*
X01513840Y01097280D02*
D03*
X01503680Y01076960D02*
D03*
X01483360Y01117600D02*
D03*
X01493520Y01097280D02*
D03*
X01483360Y01076960D02*
D03*
X01463040Y01158240D02*
D03*
X01473200Y01137920D02*
D03*
X01463040Y01117600D02*
D03*
X01473200Y01097280D02*
D03*
X01463040Y01076960D02*
D03*
X01452880Y01219200D02*
D03*
X01442720Y01198880D02*
D03*
X01452880Y01178560D02*
D03*
X01442720Y01158240D02*
D03*
X01452880Y01137920D02*
D03*
X01442720Y01117600D02*
D03*
X01452880Y01097280D02*
D03*
X01442720Y01076960D02*
D03*
X01422400Y01239520D02*
D03*
X01432560Y01219200D02*
D03*
X01422400Y01198880D02*
D03*
X01432560Y01178560D02*
D03*
X01422400Y01158240D02*
D03*
X01432560Y01137920D02*
D03*
X01422400Y01117600D02*
D03*
X01432560Y01097280D02*
D03*
X01422400Y01076960D02*
D03*
X01402080Y01239520D02*
D03*
X01412240Y01219200D02*
D03*
X01402080Y01198880D02*
D03*
X01412240Y01178560D02*
D03*
X01402080Y01158240D02*
D03*
X01412240Y01137920D02*
D03*
X01402080Y01117600D02*
D03*
X01412240Y01097280D02*
D03*
X01402080Y01076960D02*
D03*
X01381760Y01239520D02*
D03*
X01391920Y01219200D02*
D03*
X01381760Y01198880D02*
D03*
X01391920Y01178560D02*
D03*
X01381760Y01158240D02*
D03*
X01391920Y01137920D02*
D03*
X01381760Y01117600D02*
D03*
X01391920Y01097280D02*
D03*
X01361440Y01239520D02*
D03*
X01371600Y01219200D02*
D03*
X01361440Y01198880D02*
D03*
X01371600Y01178560D02*
D03*
X01361440Y01158240D02*
D03*
X01371600Y01137920D02*
D03*
X01361440Y01117600D02*
D03*
X01371600Y01097280D02*
D03*
X01545946Y01133546D02*
D03*
X01560196Y01133296D02*
D03*
X01560696Y01082796D02*
D03*
X01546196Y01083046D02*
D03*
X01575196Y01082796D02*
D03*
X01575223Y01133398D02*
D03*
X01524223Y01555369D02*
D03*
X01558244Y01414770D02*
D03*
X01572834Y01391549D02*
D03*
X01573756Y01403133D02*
D03*
Y01414754D02*
D03*
X01573144Y01426358D02*
D03*
X01572042Y01437926D02*
D03*
X01570335Y01449420D02*
D03*
X01569311Y01460996D02*
D03*
X01513208Y01117695D02*
D03*
X01518324Y01108697D02*
D03*
X01527597Y01104099D02*
D03*
X01568513Y01099707D02*
D03*
X01573593Y01117283D02*
D03*
X01563248Y01116954D02*
D03*
X01552908Y01116489D02*
D03*
X01532876Y01119956D02*
D03*
X01525013Y01126686D02*
D03*
X01574800Y01666240D02*
D03*
X01564640Y01645920D02*
D03*
X01574800Y01584960D02*
D03*
Y01503680D02*
D03*
Y01463040D02*
D03*
X01554480Y01666240D02*
D03*
X01544320Y01645920D02*
D03*
X01554480Y01584960D02*
D03*
X01524000Y01686560D02*
D03*
X01503680D02*
D03*
X01513840Y01666240D02*
D03*
X01503680Y01645920D02*
D03*
X01513840Y01463040D02*
D03*
X01503680Y01442720D02*
D03*
X01483360Y01686560D02*
D03*
X01493520Y01666240D02*
D03*
X01483360Y01645920D02*
D03*
Y01605280D02*
D03*
X01493520Y01584960D02*
D03*
Y01544320D02*
D03*
Y01463040D02*
D03*
X01463040Y01686560D02*
D03*
X01473200Y01666240D02*
D03*
X01463040Y01645920D02*
D03*
Y01605280D02*
D03*
X01473200Y01584960D02*
D03*
X01579723Y01716898D02*
D03*
X01564723Y01723648D02*
D03*
X01544723D02*
D03*
X01524723D02*
D03*
X01504723D02*
D03*
X01484723D02*
D03*
X01464723D02*
D03*
X01444723D02*
D03*
X01424723D02*
D03*
X01404723D02*
D03*
X01384723D02*
D03*
X01340473Y01416648D02*
D03*
X01344473Y01466648D02*
D03*
X01334973Y01456648D02*
D03*
Y01439148D02*
D03*
Y01476648D02*
D03*
Y01496648D02*
D03*
Y01516648D02*
D03*
Y01536648D02*
D03*
Y01556648D02*
D03*
Y01576648D02*
D03*
Y01596648D02*
D03*
Y01616648D02*
D03*
Y01636648D02*
D03*
Y01656648D02*
D03*
X01344473Y01666648D02*
D03*
Y01646648D02*
D03*
Y01626648D02*
D03*
Y01606648D02*
D03*
Y01586648D02*
D03*
Y01566648D02*
D03*
Y01546648D02*
D03*
Y01526648D02*
D03*
Y01506648D02*
D03*
Y01486648D02*
D03*
X01335473Y01110898D02*
D03*
Y01130898D02*
D03*
Y01150898D02*
D03*
X01344973Y01140898D02*
D03*
Y01120898D02*
D03*
Y01100898D02*
D03*
Y01160898D02*
D03*
Y01180898D02*
D03*
Y01200898D02*
D03*
Y01220898D02*
D03*
Y01240898D02*
D03*
X01335473Y01250898D02*
D03*
Y01230898D02*
D03*
Y01210898D02*
D03*
Y01190898D02*
D03*
Y01170898D02*
D03*
X00524723Y01487148D02*
D03*
Y01507148D02*
D03*
Y01527148D02*
D03*
Y01547148D02*
D03*
Y01567148D02*
D03*
Y01587148D02*
D03*
Y01607148D02*
D03*
Y01627148D02*
D03*
Y01647148D02*
D03*
Y01667148D02*
D03*
X00515223Y01677148D02*
D03*
Y01657148D02*
D03*
Y01637148D02*
D03*
Y01617148D02*
D03*
Y01597148D02*
D03*
Y01577148D02*
D03*
Y01557148D02*
D03*
Y01537148D02*
D03*
Y01517148D02*
D03*
Y01497148D02*
D03*
Y01477148D02*
D03*
X00515973Y01086398D02*
D03*
Y01106398D02*
D03*
Y01126398D02*
D03*
Y01146398D02*
D03*
Y01166398D02*
D03*
Y01186398D02*
D03*
Y01206398D02*
D03*
Y01226398D02*
D03*
Y01246398D02*
D03*
Y01266398D02*
D03*
Y01286398D02*
D03*
Y01306398D02*
D03*
X00525473Y01296398D02*
D03*
Y01276398D02*
D03*
Y01256398D02*
D03*
Y01236398D02*
D03*
Y01216398D02*
D03*
Y01196398D02*
D03*
Y01176398D02*
D03*
Y01156398D02*
D03*
Y01136398D02*
D03*
Y01116398D02*
D03*
Y01096398D02*
D03*
X00570473Y01726148D02*
D03*
X00590473D02*
D03*
X00610473D02*
D03*
X00630473D02*
D03*
X00650473D02*
D03*
X00670473D02*
D03*
X00690473D02*
D03*
X00710473D02*
D03*
X00730473D02*
D03*
X00750473D02*
D03*
X00770473D02*
D03*
X00790473D02*
D03*
X00810473D02*
D03*
X00830473D02*
D03*
X00850473D02*
D03*
X00870473D02*
D03*
X00890473D02*
D03*
X00910473D02*
D03*
X00930473D02*
D03*
X00950473D02*
D03*
X00970473D02*
D03*
X00990473D02*
D03*
X01010473D02*
D03*
X01030473D02*
D03*
X01050473D02*
D03*
X01070473D02*
D03*
X01090473D02*
D03*
X01110473D02*
D03*
X01130473D02*
D03*
X01150473D02*
D03*
X01170473D02*
D03*
X01190473D02*
D03*
X01210473D02*
D03*
X01230473D02*
D03*
X01250473D02*
D03*
X01270473D02*
D03*
X01290473D02*
D03*
X01310473D02*
D03*
X01330473D02*
D03*
X01320473Y01716648D02*
D03*
X01300473D02*
D03*
X01280473D02*
D03*
X01260473D02*
D03*
X01240473D02*
D03*
X01220473D02*
D03*
X01200473D02*
D03*
X01180473D02*
D03*
X01160473D02*
D03*
X01140473D02*
D03*
X01120473D02*
D03*
X01100473D02*
D03*
X01080473D02*
D03*
X01060473D02*
D03*
X01040473D02*
D03*
X01020473D02*
D03*
X01000473D02*
D03*
X00980473D02*
D03*
X00960473D02*
D03*
X00940473D02*
D03*
X00920473D02*
D03*
X00900473D02*
D03*
X00880473D02*
D03*
X00860473D02*
D03*
X00840473D02*
D03*
X00820473D02*
D03*
X00800473D02*
D03*
X00780473D02*
D03*
X00760473D02*
D03*
X00740473D02*
D03*
X00720473D02*
D03*
X00700473D02*
D03*
X00680473D02*
D03*
X00660473D02*
D03*
X00640473D02*
D03*
X00620473D02*
D03*
X00600473D02*
D03*
X00580473D02*
D03*
X01314723Y01047148D02*
D03*
X01294723D02*
D03*
X01274723D02*
D03*
X01254723D02*
D03*
X01234723D02*
D03*
X01214723D02*
D03*
X01194723D02*
D03*
X01174723D02*
D03*
X01154723D02*
D03*
X01134723D02*
D03*
X01114723D02*
D03*
X01094723D02*
D03*
X01074723D02*
D03*
X01054723D02*
D03*
X01034723D02*
D03*
X01014723D02*
D03*
X00994723D02*
D03*
X00974723D02*
D03*
X00954723D02*
D03*
X00934723D02*
D03*
X00914723D02*
D03*
X00894723D02*
D03*
X00874723D02*
D03*
X00854723D02*
D03*
X00834723D02*
D03*
X00814723D02*
D03*
X00794723D02*
D03*
X00774723D02*
D03*
X00754723D02*
D03*
X00734723D02*
D03*
X00714723D02*
D03*
X00694723D02*
D03*
X00674723D02*
D03*
X00654723D02*
D03*
X00634723D02*
D03*
X00614723D02*
D03*
X00594723D02*
D03*
X00574723D02*
D03*
X00564723Y01037648D02*
D03*
X00584723D02*
D03*
X00604723D02*
D03*
X00624723D02*
D03*
X00644723D02*
D03*
X00664723D02*
D03*
X00684723D02*
D03*
X00704723D02*
D03*
X00724723D02*
D03*
X00744723D02*
D03*
X00764723D02*
D03*
X00784723D02*
D03*
X00804723D02*
D03*
X00824723D02*
D03*
X00844723D02*
D03*
X00864723D02*
D03*
X00884723D02*
D03*
X00904723D02*
D03*
X00924723D02*
D03*
X00944723D02*
D03*
X00964723D02*
D03*
X00984723D02*
D03*
X01004723D02*
D03*
X01024723D02*
D03*
X01044723D02*
D03*
X01064723D02*
D03*
X01084723D02*
D03*
X01104723D02*
D03*
X01124723D02*
D03*
X01144723D02*
D03*
X01164723D02*
D03*
X01184723D02*
D03*
X01204723D02*
D03*
X01224723D02*
D03*
X01244723D02*
D03*
X01264723D02*
D03*
X01284723D02*
D03*
X01304723D02*
D03*
X01324723D02*
D03*
X01384723Y01039398D02*
D03*
X01404723D02*
D03*
X01424723D02*
D03*
X01444723D02*
D03*
X01464723D02*
D03*
X01484723D02*
D03*
X01504723D02*
D03*
X01524723D02*
D03*
X01544723D02*
D03*
X01564723D02*
D03*
X01577723Y01045898D02*
D03*
X01533223Y01663148D02*
D03*
X01523473Y01656148D02*
D03*
X00778327Y01560426D02*
D03*
X01295908Y01102145D02*
D03*
X01523473Y01190398D02*
D03*
X01278730Y01461480D02*
D03*
X01175385Y01250354D02*
D03*
X01143901Y01237793D02*
D03*
X01162558Y01250481D02*
D03*
X01171956Y01259244D02*
D03*
X01167003Y01263689D02*
D03*
X01139698Y01248068D02*
D03*
X01395000Y01685000D02*
D03*
X00595702Y01351760D02*
D03*
X00981202Y01462444D02*
D03*
X01422146Y01458380D02*
D03*
X01064006Y01374560D02*
D03*
X00778510Y01283340D02*
D03*
X01063752Y01282612D02*
D03*
X00722122Y01327316D02*
D03*
X01129030Y01282612D02*
D03*
X01118870D02*
D03*
X01053846Y01334682D02*
D03*
X01194054Y01414438D02*
D03*
X01183900Y01334550D02*
D03*
X01168908Y01281850D02*
D03*
X01173988Y01294550D02*
D03*
X01203960Y01324522D02*
D03*
X01489202Y01333158D02*
D03*
X01401216Y01293183D02*
D03*
X01409216D02*
D03*
X01417216D02*
D03*
Y01317183D02*
D03*
X01321000Y01283000D02*
D03*
X01335250Y01285000D02*
D03*
X01345750Y01290000D02*
D03*
X01425216Y01333183D02*
D03*
Y01349183D02*
D03*
X01203960Y01304456D02*
D03*
Y01294042D02*
D03*
X01193800Y01284390D02*
D03*
Y01294550D02*
D03*
Y01304710D02*
D03*
X01473200Y01389292D02*
D03*
Y01381164D02*
D03*
X01481328D02*
D03*
X01457198D02*
D03*
X01183900Y01374551D02*
D03*
X01163900D02*
D03*
X01173900D02*
D03*
X01183900Y01394551D02*
D03*
X01457216Y01333183D02*
D03*
X01473216D02*
D03*
Y01325183D02*
D03*
X01451610Y01559814D02*
D03*
X01425956D02*
D03*
X01456436Y01474724D02*
D03*
X01462532Y01484376D02*
D03*
X01449578D02*
D03*
X01449832Y01511808D02*
D03*
Y01528826D02*
D03*
X01403604Y01528064D02*
D03*
X01390904D02*
D03*
X01411224Y01477518D02*
D03*
X01397762Y01477772D02*
D03*
X01389888Y01485646D02*
D03*
X01404366Y01486154D02*
D03*
X01317887Y01529207D02*
D03*
X01325519Y01534795D02*
D03*
Y01523619D02*
D03*
X01325392Y01512101D02*
D03*
X01318014Y01517689D02*
D03*
X01027400Y01428242D02*
D03*
X01073900Y01384551D02*
D03*
X01063900Y01354550D02*
D03*
Y01344550D02*
D03*
Y01334550D02*
D03*
X00806704Y01208024D02*
D03*
Y01228598D02*
D03*
X01583250Y01060000D02*
D03*
Y01080000D02*
D03*
Y01100000D02*
D03*
Y01120000D02*
D03*
Y01140000D02*
D03*
Y01160000D02*
D03*
Y01180000D02*
D03*
Y01200000D02*
D03*
Y01220000D02*
D03*
Y01240000D02*
D03*
Y01260000D02*
D03*
Y01280000D02*
D03*
Y01300000D02*
D03*
Y01320000D02*
D03*
Y01340000D02*
D03*
Y01360000D02*
D03*
Y01380000D02*
D03*
Y01400000D02*
D03*
Y01420000D02*
D03*
Y01440000D02*
D03*
Y01460000D02*
D03*
Y01480000D02*
D03*
Y01500000D02*
D03*
Y01520000D02*
D03*
Y01540000D02*
D03*
Y01560000D02*
D03*
Y01580000D02*
D03*
Y01640000D02*
D03*
X00757858Y01264270D02*
D03*
X00768289Y01266114D02*
D03*
X00786000Y01258000D02*
D03*
X00777000Y01252000D02*
D03*
X00779000Y01262000D02*
D03*
X00769730Y01256000D02*
D03*
X00876000Y01244000D02*
D03*
X00732000D02*
D03*
X01537437Y01494739D02*
D03*
X01561414Y01494765D02*
D03*
X01535059Y01504000D02*
D03*
X01564427D02*
D03*
X01520692Y01149121D02*
D03*
X01481216Y01309183D02*
D03*
X01489216Y01357183D02*
D03*
X01481216D02*
D03*
X01481187Y01349962D02*
D03*
X01489216Y01365183D02*
D03*
X01481216D02*
D03*
Y01373183D02*
D03*
X01489216D02*
D03*
X01489216Y01349183D02*
D03*
X01473216Y01365183D02*
D03*
Y01373183D02*
D03*
X01008799Y01401568D02*
D03*
X01015172Y01396939D02*
D03*
X01268750Y01480000D02*
D03*
X01183900Y01384551D02*
D03*
X01220582Y01373703D02*
D03*
X01236810Y01465571D02*
D03*
X01409216Y01389183D02*
D03*
X01442235Y01407602D02*
D03*
X01193800Y01434504D02*
D03*
X01163900Y01424551D02*
D03*
X01457216Y01357183D02*
D03*
X01457216Y01365183D02*
D03*
X01465216Y01373183D02*
D03*
X01465216Y01365183D02*
D03*
X01462428Y01408364D02*
D03*
X01489216Y01389183D02*
D03*
X01456466Y01391684D02*
D03*
X01524223Y01538398D02*
D03*
X01532708Y01546883D02*
D03*
X01515738Y01546883D02*
D03*
X01507252Y01555369D02*
D03*
X01515738Y01563854D02*
D03*
X01507252Y01572339D02*
D03*
X01498767Y01563854D02*
D03*
X01509000Y01277000D02*
D03*
X01073900Y01374551D02*
D03*
X01133900Y01324550D02*
D03*
X00698180Y01343340D02*
D03*
X01231042Y01401158D02*
D03*
X01173900Y01354550D02*
D03*
X01183900Y01303788D02*
D03*
Y01354550D02*
D03*
X01473216Y01357183D02*
D03*
X01365547Y01350788D02*
D03*
X01365191Y01359272D02*
D03*
X01457216Y01309183D02*
D03*
X01465216D02*
D03*
X01473216Y01301183D02*
D03*
X01417216Y01301183D02*
D03*
X01383629Y01333288D02*
D03*
X01401216Y01389183D02*
D03*
X01417216Y01365183D02*
D03*
X01120659Y01243953D02*
D03*
X01073900Y01394551D02*
D03*
X01063900D02*
D03*
Y01384551D02*
D03*
X01015372Y01357189D02*
D03*
X01031900Y01334350D02*
D03*
X01083900Y01394551D02*
D03*
X01033750Y01394950D02*
D03*
X01083900Y01374551D02*
D03*
X01073900Y01344550D02*
D03*
X01093900Y01354550D02*
D03*
X00981497Y01330685D02*
D03*
X00995951D02*
D03*
X01004850Y01332000D02*
D03*
X01203900Y01284550D02*
D03*
X01253871Y01372743D02*
D03*
X01240012Y01373662D02*
D03*
X01127690Y01475810D02*
D03*
X01127950Y01465650D02*
D03*
X01005800Y01393750D02*
D03*
X01093900Y01284550D02*
D03*
X01230742Y01373743D02*
D03*
X01220332Y01331899D02*
D03*
X01173846Y01314277D02*
D03*
X01083900Y01344550D02*
D03*
X01093900D02*
D03*
X01133900Y01314550D02*
D03*
X01153901D02*
D03*
X01134100Y01273800D02*
D03*
X01133900Y01334550D02*
D03*
Y01344550D02*
D03*
X01083900Y01384551D02*
D03*
X01073900Y01354550D02*
D03*
X01083900D02*
D03*
X01113850Y01304600D02*
D03*
X00722180Y01343340D02*
D03*
X00730180Y01335340D02*
D03*
X01093900Y01304550D02*
D03*
X01113900Y01314550D02*
D03*
X01103900Y01304550D02*
D03*
X01063900Y01314042D02*
D03*
X01073900Y01314550D02*
D03*
X01083900D02*
D03*
X01093900Y01324550D02*
D03*
Y01314550D02*
D03*
X00730180Y01359340D02*
D03*
X01073900Y01334550D02*
D03*
X01083900D02*
D03*
X00746180Y01391340D02*
D03*
X00722180Y01375340D02*
D03*
X00715930Y01254590D02*
D03*
X00710430Y01285090D02*
D03*
X00682180Y01391340D02*
D03*
X00706680Y01441340D02*
D03*
X00711708Y01430020D02*
D03*
X00713680Y01441340D02*
D03*
X00711708Y01419860D02*
D03*
X00572052Y01352070D02*
D03*
X00682180Y01343340D02*
D03*
X00690180D02*
D03*
X00730180D02*
D03*
X00706180Y01335340D02*
D03*
X00738180Y01343340D02*
D03*
X00730180Y01319340D02*
D03*
X00698180Y01335340D02*
D03*
X00690180D02*
D03*
Y01351340D02*
D03*
X00698180D02*
D03*
X00690180Y01367340D02*
D03*
X00682180D02*
D03*
Y01359340D02*
D03*
Y01351340D02*
D03*
X00674180Y01327340D02*
D03*
X00715772Y01453642D02*
D03*
X00735580Y01430020D02*
D03*
X00709676Y01484122D02*
D03*
X00638810Y01464818D02*
D03*
X00690180Y01375340D02*
D03*
X00686816Y01421130D02*
D03*
X00735580Y01419860D02*
D03*
X00752094Y01430020D02*
D03*
X00762180Y01327340D02*
D03*
X00722180Y01359340D02*
D03*
X00706180Y01359340D02*
D03*
X00690180D02*
D03*
X00682180Y01327340D02*
D03*
X00674180Y01319340D02*
D03*
X01043900Y01444551D02*
D03*
X01193900Y01425059D02*
D03*
X01203900Y01394551D02*
D03*
X01183900Y01404043D02*
D03*
X01163138Y01314550D02*
D03*
X01163900Y01414551D02*
D03*
X01153901D02*
D03*
X01173900Y01384551D02*
D03*
X01143901Y01414551D02*
D03*
X01153901Y01404551D02*
D03*
X01093900Y01334550D02*
D03*
X01143901D02*
D03*
X01153139Y01344804D02*
D03*
X01143901Y01344550D02*
D03*
X01055782Y01459399D02*
D03*
X01055624Y01470152D02*
D03*
X01089882Y01459749D02*
D03*
X01089712Y01473719D02*
D03*
X01166082Y01463799D02*
D03*
X01165822Y01473959D02*
D03*
X01230492Y01331909D02*
D03*
X01191332Y01268895D02*
D03*
X01191372Y01258989D02*
D03*
X01030082Y01281999D02*
D03*
X01027000Y01401000D02*
D03*
X01163900Y01304550D02*
D03*
X00722180Y01335340D02*
D03*
Y01351340D02*
D03*
X00706180Y01351340D02*
D03*
Y01343340D02*
D03*
X01113900Y01404551D02*
D03*
X01133900D02*
D03*
X01143901D02*
D03*
X01133646Y01424551D02*
D03*
X01401216Y01301183D02*
D03*
X01409216D02*
D03*
X01401216Y01317183D02*
D03*
X01489216Y01309183D02*
D03*
X01425216D02*
D03*
X01473216D02*
D03*
X01481216Y01317183D02*
D03*
X01433216D02*
D03*
X01417216Y01357183D02*
D03*
X01401216Y01333183D02*
D03*
X01489216Y01381183D02*
D03*
X01481216Y01389183D02*
D03*
X01489216Y01317183D02*
D03*
X01222375Y01447927D02*
D03*
X01433216Y01325183D02*
D03*
X01425216Y01317183D02*
D03*
Y01325183D02*
D03*
X01220882Y01401282D02*
D03*
X01473216Y01317183D02*
D03*
X01173900Y01424551D02*
D03*
X01465216Y01317183D02*
D03*
X01231392Y01447927D02*
D03*
X01163900Y01354550D02*
D03*
X01481216Y01333183D02*
D03*
X01183900Y01425059D02*
D03*
X01158122Y01256139D02*
D03*
X01158032Y01266299D02*
D03*
X01173900Y01303788D02*
D03*
X01153901Y01304550D02*
D03*
X01021982Y01451999D02*
D03*
X01063900Y01424551D02*
D03*
X01188847Y01447165D02*
D03*
X01163900Y01455350D02*
D03*
X01183894Y01456055D02*
D03*
X01183900Y01414551D02*
D03*
X01158900Y01460900D02*
D03*
X01278750Y01455250D02*
D03*
X01481216Y01325183D02*
D03*
X01013795Y01424066D02*
D03*
X00766739Y01627338D02*
D03*
X00855739D02*
D03*
X00575000Y01505000D02*
D03*
X00585000D02*
D03*
X00595000D02*
D03*
X00605000D02*
D03*
X00615000Y01500000D02*
D03*
X00605000Y01495000D02*
D03*
X00595000D02*
D03*
X00585000D02*
D03*
X00575000D02*
D03*
X00605000Y01485000D02*
D03*
X00615000Y01490000D02*
D03*
Y01480000D02*
D03*
X00605000Y01475000D02*
D03*
X01301242Y01107606D02*
D03*
X01312037Y01107733D02*
D03*
X01306576Y01102145D02*
D03*
X01317625D02*
D03*
X01423000Y01264000D02*
D03*
X01434000D02*
D03*
X01442000D02*
D03*
X01317000Y01252000D02*
D03*
X01325000Y01261000D02*
D03*
X01323000Y01272000D02*
D03*
X01317000Y01311984D02*
D03*
X01354000Y01359000D02*
D03*
Y01351000D02*
D03*
X01520750Y01380250D02*
D03*
X01526794Y01358206D02*
D03*
X01549000Y01300000D02*
D03*
X01535000Y01299000D02*
D03*
X01560500Y01334000D02*
D03*
X01573000Y01338000D02*
D03*
X01575000Y01330000D02*
D03*
X01577000Y01322000D02*
D03*
X01550000Y01292000D02*
D03*
X01558000D02*
D03*
X01566000D02*
D03*
X01464500Y01623000D02*
D03*
X00614220Y01252220D02*
D03*
X01256000Y01278000D02*
D03*
Y01270000D02*
D03*
Y01261000D02*
D03*
X01264016Y01274000D02*
D03*
Y01265000D02*
D03*
X01187288Y01075916D02*
D03*
X01195288D02*
D03*
X01241288Y01074916D02*
D03*
X01234288Y01069916D02*
D03*
X01313288Y01166916D02*
D03*
X01304288D02*
D03*
X01295288D02*
D03*
X01244288Y01163916D02*
D03*
X01254288Y01166916D02*
D03*
X00768180Y01466090D02*
D03*
X01335473Y01367282D02*
D03*
Y01352750D02*
D03*
X01345750Y01312234D02*
D03*
X01335473D02*
D03*
X01341000Y01386750D02*
D03*
X01480000Y01460000D02*
D03*
Y01480000D02*
D03*
X01470000Y01510000D02*
D03*
X01480000Y01520000D02*
D03*
X01470000Y01530000D02*
D03*
X01480000Y01540000D02*
D03*
X01470000Y01550000D02*
D03*
X01480000Y01560000D02*
D03*
X01470000Y01570000D02*
D03*
X01457223Y01577898D02*
D03*
X01440000Y01580000D02*
D03*
X01420000D02*
D03*
X01395000D02*
D03*
Y01595000D02*
D03*
Y01608750D02*
D03*
Y01628000D02*
D03*
Y01640000D02*
D03*
Y01655000D02*
D03*
Y01670000D02*
D03*
Y01700000D02*
D03*
X01405000Y01705000D02*
D03*
X01430000D02*
D03*
X01450000D02*
D03*
X01480000Y01580000D02*
D03*
X01345750Y01275000D02*
D03*
X01335473Y01260000D02*
D03*
X01350000Y01245000D02*
D03*
X01583250Y01680000D02*
D03*
X01555750Y01409192D02*
D03*
Y01420368D02*
D03*
Y01429766D02*
D03*
X01554988Y01440688D02*
D03*
X01553972Y01449578D02*
D03*
X01546723Y01409148D02*
D03*
X01549077Y01189012D02*
D03*
X01547690Y01177923D02*
D03*
X01543684Y01167489D02*
D03*
X01536581Y01158861D02*
D03*
X01527332Y01152587D02*
D03*
X01525745Y01171465D02*
D03*
X01530596Y01181533D02*
D03*
X01541138Y01284136D02*
D03*
X01548909Y01276104D02*
D03*
X01553956Y01266132D02*
D03*
X01556145Y01255173D02*
D03*
X01556239Y01243997D02*
D03*
X01555900Y01232826D02*
D03*
X01554898Y01221695D02*
D03*
X01553299Y01210634D02*
D03*
X01551248Y01199648D02*
D03*
X01532556Y01193944D02*
D03*
X01535355Y01204763D02*
D03*
X01537361Y01215758D02*
D03*
X01538804Y01226841D02*
D03*
X01539521Y01237993D02*
D03*
X01539713Y01249168D02*
D03*
X01538385Y01260265D02*
D03*
X01510287Y01195470D02*
D03*
X01515820Y01185760D02*
D03*
X01483851Y01214431D02*
D03*
X01479978Y01223886D02*
D03*
X01478415Y01201601D02*
D03*
X01461743Y01195428D02*
D03*
X01461989Y01206601D02*
D03*
X01462503Y01217765D02*
D03*
X01535684Y01454404D02*
D03*
Y01462786D02*
D03*
Y01473200D02*
D03*
X01535938Y01481836D02*
D03*
X01568196Y01469136D02*
D03*
X01566164Y01478534D02*
D03*
X01563116Y01486662D02*
D03*
X01552194Y01552956D02*
D03*
X01551178Y01542542D02*
D03*
X01566672Y01564640D02*
D03*
X01570736Y01556004D02*
D03*
X01570990Y01545844D02*
D03*
X01569466Y01534668D02*
D03*
X01532890Y01607566D02*
D03*
X01531620Y01616964D02*
D03*
X01530858Y01626616D02*
D03*
X01515723Y01646648D02*
D03*
X01512824Y01633982D02*
D03*
X01512570Y01623568D02*
D03*
Y01613408D02*
D03*
X01515618Y01594104D02*
D03*
X01565656Y01576324D02*
D03*
X01540002Y01602486D02*
D03*
X01544723Y01584148D02*
D03*
X01535684Y01637284D02*
D03*
X01503426Y01629410D02*
D03*
X01407216Y01286933D02*
D03*
X01193800Y01344588D02*
D03*
X01205992Y01349414D02*
D03*
X01194054Y01354494D02*
D03*
X01203706D02*
D03*
X01194054Y01384720D02*
D03*
Y01394626D02*
D03*
X01203960Y01384720D02*
D03*
Y01414438D02*
D03*
X01173988Y01394626D02*
D03*
X01209548Y01402246D02*
D03*
X01163900Y01404551D02*
D03*
X01173900Y01414551D02*
D03*
X01371891Y01309116D02*
D03*
X01019050Y01401568D02*
D03*
X00986100Y01452150D02*
D03*
X00835406Y01501052D02*
D03*
X00699008Y01312584D02*
D03*
X00822452Y01473620D02*
D03*
X00794157Y01637132D02*
D03*
X00695452Y01307250D02*
D03*
X00790448Y01463456D02*
D03*
X00699262Y01301662D02*
D03*
X01163900Y01384551D02*
D03*
X00738180Y01375340D02*
D03*
X00762181Y01407341D02*
D03*
X00738180Y01383340D02*
D03*
Y01391340D02*
D03*
X00730180Y01383340D02*
D03*
Y01375340D02*
D03*
X01083900Y01404551D02*
D03*
X01093900D02*
D03*
X01103900D02*
D03*
X01083900Y01414551D02*
D03*
X01093900Y01424551D02*
D03*
Y01414551D02*
D03*
X01084154Y01424551D02*
D03*
X00752094Y01419860D02*
D03*
X00729742Y01407072D02*
D03*
X00730250Y01399198D02*
D03*
X01020318Y01282358D02*
D03*
X01178814Y01281850D02*
D03*
X00722180Y01391340D02*
D03*
X00706180Y01391340D02*
D03*
X00776732Y01392174D02*
D03*
X00786892D02*
D03*
X00746180Y01335340D02*
D03*
X00738180Y01351340D02*
D03*
X00746180Y01375340D02*
D03*
X00738180Y01335340D02*
D03*
Y01359340D02*
D03*
X00746180Y01383340D02*
D03*
X00774700Y01365504D02*
D03*
X00784860D02*
D03*
X00746180Y01359340D02*
D03*
Y01343340D02*
D03*
X00762180Y01335340D02*
D03*
X00762508Y01343318D02*
D03*
X00754180Y01335340D02*
D03*
Y01343340D02*
D03*
X00762180Y01359340D02*
D03*
X00730180Y01351340D02*
D03*
X00746180D02*
D03*
X01025532Y01357149D02*
D03*
X01073900Y01324550D02*
D03*
X01083900D02*
D03*
X01489216Y01301183D02*
D03*
X01481216D02*
D03*
X01424940Y01286676D02*
D03*
X01433375Y01286493D02*
D03*
X01465216Y01325183D02*
D03*
X01465216Y01333183D02*
D03*
Y01357183D02*
D03*
Y01349183D02*
D03*
X01373468Y01333596D02*
D03*
X01441216Y01349183D02*
D03*
X01433216Y01349183D02*
D03*
X01409192Y01349414D02*
D03*
X01345750Y01335190D02*
D03*
X01457216Y01325183D02*
D03*
X01457216Y01317183D02*
D03*
X01441216D02*
D03*
X01433216Y01309183D02*
D03*
X01441216D02*
D03*
Y01325183D02*
D03*
X01433216Y01357183D02*
D03*
Y01365183D02*
D03*
X01433216Y01333183D02*
D03*
X01441216D02*
D03*
X01473216Y01349183D02*
D03*
X01230757Y01357122D02*
D03*
X01220216D02*
D03*
X01220470Y01349160D02*
D03*
X01230630D02*
D03*
X01441216Y01357183D02*
D03*
Y01365183D02*
D03*
X01425216Y01357183D02*
D03*
X01441216Y01381164D02*
D03*
X01425216Y01365183D02*
D03*
Y01373183D02*
D03*
X01417216Y01325183D02*
D03*
Y01333183D02*
D03*
Y01373183D02*
D03*
X01441216Y01373183D02*
D03*
X01040384Y01359320D02*
D03*
X01053900Y01294042D02*
D03*
Y01304550D02*
D03*
X01063900D02*
D03*
X01073900D02*
D03*
X01083900D02*
D03*
X01143901Y01324550D02*
D03*
X01073646Y01424551D02*
D03*
X01497216Y01333158D02*
D03*
X01497216Y01317183D02*
D03*
X01497216Y01325183D02*
D03*
X00722180Y01383340D02*
D03*
X00730180Y01391340D02*
D03*
X00706180Y01375340D02*
D03*
Y01383340D02*
D03*
X00690180Y01391340D02*
D03*
X00698180Y01383340D02*
D03*
X00788924Y01266610D02*
D03*
X01204214Y01315124D02*
D03*
X01163646Y01324296D02*
D03*
X01173900Y01344550D02*
D03*
X01183900D02*
D03*
X01133646Y01414551D02*
D03*
X01425090Y01392489D02*
D03*
X01163828Y01334428D02*
D03*
X01174408Y01334804D02*
D03*
X01153139D02*
D03*
X01163900Y01344550D02*
D03*
X01417216Y01389183D02*
D03*
X01433322Y01389038D02*
D03*
X01433216Y01373183D02*
D03*
X01120137Y01229983D02*
D03*
X01554973Y01715398D02*
D03*
X01583223Y01596148D02*
D03*
Y01629398D02*
D03*
X01554223Y01629648D02*
D03*
X01568723Y01629398D02*
D03*
X01568223Y01679898D02*
D03*
X01553973Y01680148D02*
D03*
X01583473Y01666898D02*
D03*
X00843744Y01467506D02*
D03*
X00720973Y01248398D02*
D03*
X00710723D02*
D03*
X00716026Y01278802D02*
D03*
D236*
X00690723Y01513148D02*
D03*
X01200150Y01123862D02*
D03*
X00733679Y01166915D02*
D03*
X00743839Y01157263D02*
D03*
X00601599Y01232828D02*
D03*
X00548386Y01252259D02*
D03*
X01461246Y01460754D02*
D03*
X00574802Y01401318D02*
D03*
X00706374Y01525270D02*
D03*
X00634000Y01415000D02*
D03*
X01190038Y01133416D02*
D03*
Y01123916D02*
D03*
Y01114416D02*
D03*
X01208500Y01229500D02*
D03*
X01243500Y01216500D02*
D03*
X01233750D02*
D03*
X01223750D02*
D03*
X00988150Y01391750D02*
D03*
X00981542Y01431812D02*
D03*
X01060156Y01194420D02*
D03*
X01060526Y01214740D02*
D03*
X01207729Y01501829D02*
D03*
X01208141Y01481509D02*
D03*
X01226350Y01495900D02*
D03*
X01247130Y01515200D02*
D03*
X01276650Y01485680D02*
D03*
X01112549Y01269899D02*
D03*
X01112989Y01259739D02*
D03*
X00733679Y01157517D02*
D03*
X00743839Y01167042D02*
D03*
X00596930Y01376090D02*
D03*
X00602680Y01391090D02*
D03*
X00816680Y01515090D02*
D03*
X00816770Y01504930D02*
D03*
X00725424Y01516834D02*
D03*
X00532930Y01474340D02*
D03*
X00554970Y01475880D02*
D03*
X00743646Y01239288D02*
D03*
X00759140Y01214142D02*
D03*
X00768538D02*
D03*
Y01221254D02*
D03*
X00759140D02*
D03*
X00796732Y01217698D02*
D03*
X00820739Y01695838D02*
D03*
X01106171Y01236579D02*
D03*
X01106249Y01250549D02*
D03*
X01256050Y01466850D02*
D03*
X00725000Y01465000D02*
D03*
X01514600Y01454000D02*
D03*
X00610330Y01296670D02*
D03*
X00659590Y01291590D02*
D03*
X00669000Y01290000D02*
D03*
X00609689Y01584288D02*
D03*
X00841689Y01574338D02*
D03*
X00621040Y01330960D02*
D03*
X01360170Y01284170D02*
D03*
X01479920Y01232920D02*
D03*
X01454080D02*
D03*
X01524006Y01208006D02*
D03*
X01534939Y01220939D02*
D03*
X01489000Y01138000D02*
D03*
X01534115Y01265115D02*
D03*
X00745500Y01468840D02*
D03*
X01461008Y01182116D02*
D03*
D237*
X00918223Y01653898D02*
D03*
X00922723Y01639898D02*
D03*
X01155695Y01655898D02*
D03*
X01171667D02*
D03*
X01187639D02*
D03*
X01203612D02*
D03*
X01219584D02*
D03*
X01235556D02*
D03*
X01251528D02*
D03*
X01267501D02*
D03*
X01283473D02*
D03*
X01139723D02*
D03*
X00939223Y01653898D02*
D03*
X01114223Y01652648D02*
D03*
X01104223Y01643398D02*
D03*
X01094973Y01652648D02*
D03*
X01082973Y01653898D02*
D03*
X01067001D02*
D03*
X01051028D02*
D03*
X01035056D02*
D03*
X01019084D02*
D03*
X01003112D02*
D03*
X00987140D02*
D03*
X00971167D02*
D03*
X00955195D02*
D03*
X01145473Y01605648D02*
D03*
X01155473Y01605648D02*
D03*
X01150473Y01613148D02*
D03*
X01140473D02*
D03*
X01130473D02*
D03*
X01293973Y01622898D02*
D03*
Y01632898D02*
D03*
Y01642898D02*
D03*
X01283462Y01571029D02*
D03*
Y01578649D02*
D03*
X00580517Y01272198D02*
D03*
X00554176Y01215100D02*
D03*
X01003871Y01152056D02*
D03*
X00994981D02*
D03*
X00799147Y01151167D02*
D03*
X00808037D02*
D03*
X00823277Y01090842D02*
D03*
Y01083222D02*
D03*
X00814387D02*
D03*
Y01090842D02*
D03*
X00804862Y01083222D02*
D03*
X00795337D02*
D03*
X00596138Y01404874D02*
D03*
X00578090Y01486500D02*
D03*
X00743712Y01303020D02*
D03*
X00762254Y01288796D02*
D03*
X00762000Y01302766D02*
D03*
X00742950Y01289558D02*
D03*
X00603466Y01214850D02*
D03*
X00578696Y01215100D02*
D03*
X00774446Y01348232D02*
D03*
X00784606D02*
D03*
X01135473Y01605148D02*
D03*
X00990673Y01082648D02*
D03*
X01000198D02*
D03*
X01009723Y01090268D02*
D03*
Y01082648D02*
D03*
X01018613D02*
D03*
Y01090268D02*
D03*
X00615223Y01184398D02*
D03*
D238*
X00931469Y01675626D02*
D03*
X01517142Y01269023D02*
D03*
X01284605Y01523277D02*
D03*
X01305814Y01451014D02*
D03*
X01056703Y01137578D02*
D03*
X01275512Y01675245D02*
D03*
X01259510D02*
D03*
X01243508D02*
D03*
X01227506D02*
D03*
X01211504D02*
D03*
X01195502D02*
D03*
X01179500D02*
D03*
X01163498D02*
D03*
X01147496D02*
D03*
X01131494D02*
D03*
X01075487Y01675626D02*
D03*
X01059485D02*
D03*
X01043483D02*
D03*
X01027481D02*
D03*
X01011479D02*
D03*
X00995477D02*
D03*
X00979475D02*
D03*
X00963473D02*
D03*
X00947471D02*
D03*
X01201420Y01524420D02*
D03*
X00865568Y01132879D02*
D03*
X01066042Y01259589D02*
D03*
X01066232Y01269749D02*
D03*
X00903223Y01556148D02*
D03*
X01520973Y01261398D02*
D03*
X01564005Y01284005D02*
D03*
X01093216Y01263562D02*
D03*
X01093150Y01271500D02*
D03*
X00785223Y01499398D02*
D03*
X01128973Y01140648D02*
D03*
X01102465Y01152640D02*
D03*
X00697473Y01289898D02*
D03*
X00685573Y01264048D02*
D03*
X00641193Y01206178D02*
D03*
X00627223Y01206148D02*
D03*
X00698223Y01264148D02*
D03*
D239*
X01429639Y01692822D02*
D03*
X01441196Y01677963D02*
D03*
X01422654Y01666914D02*
D03*
X01493000Y01634000D02*
D03*
D240*
X01031858Y01117973D02*
D03*
X01031858Y01127973D02*
D03*
X01021858Y01127973D02*
D03*
X01021858Y01117973D02*
D03*
X01026858Y01122973D02*
D03*
X00835897Y01116957D02*
D03*
X00835897Y01126957D02*
D03*
X00825897Y01126957D02*
D03*
X00825897Y01116957D02*
D03*
X00830897Y01121957D02*
D03*
D241*
X00828397Y01098502D02*
D03*
X00860107Y01151167D02*
D03*
X01024358Y01099438D02*
D03*
X01057338Y01151548D02*
D03*
D242*
X00938800Y01412500D02*
D03*
X00959500Y01392050D02*
D03*
X01099532Y01571268D02*
D03*
X01121349Y01594301D02*
D03*
X01099082Y01507268D02*
D03*
X01144532D02*
D03*
X01143668Y01571268D02*
D03*
D243*
X01265788Y01101916D02*
D03*
X01254788D02*
D03*
X01265788Y01112916D02*
D03*
X01254788D02*
D03*
X01283000Y01219500D02*
D03*
X01272000D02*
D03*
X01283000Y01230500D02*
D03*
X01272000D02*
D03*
M02*
