G04 Layer_Physical_Order=3*
G04 Layer_Color=128*
%FSAX44Y44*%
%MOMM*%
G71*
G01*
G75*
%ADD17C,0.1270*%
%ADD103C,0.6604*%
%ADD106C,0.6096*%
%ADD108C,0.7112*%
%ADD111C,0.7620*%
%ADD113C,1.0160*%
%ADD114C,1.4224*%
%ADD115C,1.3064*%
%ADD116C,1.7064*%
%ADD117C,0.6064*%
%ADD118C,0.8636*%
%ADD119C,0.7366*%
%ADD120C,0.8128*%
%ADD121C,3.5814*%
%ADD122C,0.6064*%
D17*
X01270775Y01031398D02*
Y01062521D01*
X01094575Y01603000D02*
X01116973Y01625398D01*
X01402461Y01566457D02*
Y01607898D01*
X01393136Y01617223D02*
X01402461Y01607898D01*
X01191973Y01617223D02*
X01393136D01*
X00853313Y01030898D02*
Y01062648D01*
X01270775Y01062521D02*
X01296810Y01088556D01*
X01377838Y01245000D02*
X01401000D01*
X01308353D02*
X01338834Y01214519D01*
X01308353Y01316353D02*
X01309000Y01317000D01*
X01308353Y01245000D02*
Y01316353D01*
X01401000Y01245000D02*
X01414653Y01258653D01*
X01369315Y01245000D02*
X01401000D01*
X01338834Y01214519D02*
X01369315Y01245000D01*
X01338834Y01177837D02*
Y01214519D01*
X01279398Y01118401D02*
X01338834Y01177837D01*
X01279398Y01105968D02*
Y01118401D01*
Y01105968D02*
X01296810Y01088556D01*
X01332611D01*
X01348994Y01104939D01*
X01381939D01*
X01427000Y01150000D01*
X01344000Y01352000D02*
X01346708Y01354708D01*
X01310000Y01511344D02*
Y01525000D01*
X00853313Y01062648D02*
X00853440Y01062521D01*
X00853313Y01062648D02*
Y01100030D01*
X00875621Y01122338D01*
X00932688D01*
X00936371Y01126021D01*
Y01158660D01*
X00931418Y01163613D02*
X00936371Y01158660D01*
X00916559Y01163613D02*
X00931418D01*
X00897509Y01182663D02*
X00916559Y01163613D01*
X00897509Y01182663D02*
Y01199681D01*
X00891540Y01205650D02*
X00897509Y01199681D01*
X00824230Y01205650D02*
X00891540D01*
X01137666Y01457666D02*
X01154430Y01474430D01*
Y01514006D01*
X01149223Y01519213D02*
X01154430Y01514006D01*
X01092962Y01519213D02*
X01149223D01*
X01086000Y01512251D02*
X01092962Y01519213D01*
X01086000Y01501000D02*
Y01512251D01*
X01120418Y01254418D02*
X01124458D01*
X01132332Y01199554D02*
Y01205777D01*
Y01199554D02*
X01148969Y01182917D01*
X01185926D01*
X01126000Y01314344D02*
Y01347000D01*
Y01314344D02*
X01126261Y01314083D01*
X01151255Y01289089D01*
Y01262927D02*
Y01289089D01*
Y01262927D02*
X01153795Y01260387D01*
X01176655D01*
X01198372Y01238670D01*
Y01195363D02*
Y01238670D01*
X01185926Y01182917D02*
X01198372Y01195363D01*
X01132332Y01205777D02*
Y01249084D01*
X01126998Y01254418D02*
X01132332Y01249084D01*
X01124458Y01254418D02*
X01126998D01*
X01451000Y01514768D02*
Y01517918D01*
X01402461Y01566457D02*
X01451000Y01517918D01*
X01450848Y01481152D02*
X01463000Y01469000D01*
X00594000Y01193121D02*
X00610473Y01176648D01*
X00594000Y01193121D02*
Y01248000D01*
Y01302000D01*
X00771000Y01297000D02*
Y01304000D01*
Y01297000D02*
X00796000Y01272000D01*
Y01258000D02*
Y01272000D01*
X00784000Y01246000D02*
X00796000Y01258000D01*
X00766000Y01246000D02*
X00784000D01*
X00738000Y01274000D02*
X00766000Y01246000D01*
X00738000Y01274000D02*
Y01301000D01*
X00649000Y01413000D02*
X00683000D01*
X00637500Y01401500D02*
X00649000Y01413000D01*
X00604500Y01401500D02*
Y01416500D01*
Y01401500D02*
X00637500D01*
X00594000Y01391000D02*
X00604500Y01401500D01*
X00610000Y01286000D02*
X00662000D01*
X00594000Y01302000D02*
X00610000Y01286000D01*
X00594000Y01302000D02*
Y01391000D01*
X00683000Y01413000D02*
X00700000D01*
X00771000Y01372000D02*
Y01410000D01*
Y01318000D02*
Y01342000D01*
Y01372000D02*
X00776000D01*
X00780000Y01368000D01*
Y01345000D02*
Y01368000D01*
X00777000Y01342000D02*
X00780000Y01345000D01*
X00771000Y01342000D02*
X00777000D01*
X00665000Y01315000D02*
X00730000D01*
X00738000Y01307000D01*
Y01301000D02*
Y01307000D01*
X00771000Y01304000D02*
Y01318000D01*
X00723000Y01413000D02*
X00742000D01*
X00761000D02*
X00767353D01*
X00758000Y01416000D02*
X00761000Y01413000D01*
X00758000Y01416000D02*
Y01423000D01*
X00756000Y01425000D02*
X00758000Y01423000D01*
X00748000Y01425000D02*
X00756000D01*
X00746000Y01423000D02*
X00748000Y01425000D01*
X00746000Y01417000D02*
Y01423000D01*
X00742000Y01413000D02*
X00746000Y01417000D01*
X00742000Y01413000D02*
X00742000D01*
X00720000Y01416000D02*
X00723000Y01413000D01*
X00720000Y01416000D02*
Y01423000D01*
X00718000Y01425000D02*
X00720000Y01423000D01*
X00706000Y01425000D02*
X00718000D01*
X00704000Y01423000D02*
X00706000Y01425000D01*
X00704000Y01417000D02*
Y01423000D01*
X00700000Y01413000D02*
X00704000Y01417000D01*
X01032000Y01400000D02*
X01039000D01*
X01027000Y01395000D02*
X01032000Y01400000D01*
X01027000Y01389000D02*
Y01395000D01*
X01085000Y01258000D02*
Y01270000D01*
Y01258000D02*
X01099000Y01244000D01*
X01110000D01*
X01120418Y01254418D01*
X01098000Y01317000D02*
X01109000Y01306000D01*
Y01299000D02*
Y01306000D01*
X01097000Y01287000D02*
X01109000Y01299000D01*
X01094000Y01287000D02*
X01097000D01*
X01085000Y01278000D02*
X01094000Y01287000D01*
X01085000Y01269000D02*
Y01278000D01*
X00604500Y01416500D02*
X00716000Y01528000D01*
X00817000D01*
X00894000D01*
X00945000Y01579000D01*
X00969000Y01603000D01*
X01094575D01*
X00662000Y01286000D02*
Y01312000D01*
X00665000Y01315000D01*
X00768000Y01413000D02*
X00771000Y01410000D01*
X01086000Y01501000D02*
X01110000Y01477000D01*
Y01457000D02*
Y01477000D01*
Y01457000D02*
X01111631Y01455369D01*
Y01391631D02*
Y01455369D01*
X01107000Y01387000D02*
X01111631Y01391631D01*
X01107000Y01381000D02*
Y01387000D01*
Y01381000D02*
X01115000Y01373000D01*
Y01366000D02*
Y01373000D01*
X01107000Y01351000D02*
Y01358000D01*
Y01351000D02*
X01109000Y01349000D01*
X01097000Y01342000D02*
X01100000Y01339000D01*
X01090000Y01342000D02*
X01097000D01*
X01087000Y01328000D02*
X01098000Y01317000D01*
X01126000Y01336651D02*
Y01347000D01*
X01131000Y01352000D01*
X01138000D01*
X01139000Y01351000D01*
Y01329451D02*
Y01351000D01*
Y01329451D02*
X01143450Y01325000D01*
X01149000D01*
X01164000Y01340000D01*
X01155000Y01381000D02*
X01163000D01*
X01137666Y01398334D02*
X01155000Y01381000D01*
X01137666Y01398334D02*
Y01457666D01*
X01027000Y01389000D02*
X01057000Y01359000D01*
X01100000D01*
X01067000Y01366000D02*
X01115000D01*
X01040000Y01393000D02*
X01067000Y01366000D01*
X01039000Y01394000D02*
X01040000Y01393000D01*
X01039000Y01394000D02*
Y01400000D01*
X01100000Y01359000D02*
X01106000D01*
X01107000Y01358000D01*
X01054000Y01342000D02*
X01090000D01*
X01051000Y01345000D02*
X01054000Y01342000D01*
X01030000Y01345000D02*
X01051000D01*
X01026000Y01341000D02*
X01030000Y01345000D01*
X01026000Y01328000D02*
Y01341000D01*
Y01328000D02*
X01030000Y01324000D01*
X01048000D01*
X01057000Y01333000D01*
X01082000D01*
X01087000Y01328000D01*
X01100000Y01339000D02*
X01105000D01*
X01109000Y01343000D01*
Y01349000D01*
X01216000Y01364000D02*
X01224000D01*
X01228000Y01360000D01*
Y01350000D02*
Y01360000D01*
X01222000Y01344000D02*
X01228000Y01350000D01*
X01168000Y01344000D02*
X01222000D01*
X01164000Y01340000D02*
X01168000Y01344000D01*
X01223000Y01411000D02*
X01224000D01*
X01229000Y01406000D01*
Y01386000D02*
Y01406000D01*
X01207000Y01364000D02*
X01229000Y01386000D01*
X01209000Y01411000D02*
X01223000D01*
X01207000Y01364000D02*
X01216000D01*
X01163000Y01381000D02*
X01179000D01*
X01209000Y01411000D01*
X01452000Y01241000D02*
X01490000Y01279000D01*
X01427000Y01150000D02*
X01434000Y01157000D01*
X01414653Y01265975D02*
X01420241Y01271563D01*
X01414653Y01258653D02*
Y01265975D01*
X01420241Y01271563D02*
X01427563D01*
X01484654Y01313346D02*
X01490000Y01308000D01*
Y01279000D02*
Y01308000D01*
Y01297000D02*
X01520000D01*
X01525000Y01292000D01*
X01552000D01*
X01558000Y01298000D01*
Y01362000D01*
X01547000Y01373000D02*
X01558000Y01362000D01*
X01526000Y01373000D02*
X01547000D01*
X01469000D02*
X01526000D01*
X01454000Y01388000D02*
X01469000Y01373000D01*
X01454000Y01388000D02*
Y01409000D01*
X01447000Y01416000D02*
X01454000Y01409000D01*
X01437000Y01416000D02*
X01447000D01*
X01375000D02*
X01437000D01*
X01361000Y01402000D02*
X01375000Y01416000D01*
X01309000Y01317000D02*
X01344000Y01352000D01*
X01401000Y01245000D02*
X01403000Y01247000D01*
X01389000Y01374000D02*
X01394000Y01379000D01*
X01389000Y01353000D02*
Y01374000D01*
Y01353000D02*
X01418000Y01324000D01*
X01434000D01*
X01394000Y01379000D02*
X01402000D01*
X01410000D01*
X01475654Y01313346D01*
X01484654D01*
X01427563Y01271563D02*
X01447000Y01291000D01*
X01434000Y01324000D02*
X01447000Y01311000D01*
Y01291000D02*
Y01311000D01*
X01344000Y01352000D02*
Y01352000D01*
Y01352000D02*
X01350000Y01346000D01*
X01357000D01*
X01361000Y01350000D01*
Y01402000D01*
X01346708Y01354708D02*
Y01474636D01*
X01310000Y01511344D02*
X01346708Y01474636D01*
X01310000Y01525000D02*
Y01535000D01*
X01315000Y01540000D01*
X01343000D01*
X01359000Y01524000D01*
X01375000Y01508000D01*
Y01416000D02*
Y01508000D01*
X01460000Y01397000D02*
X01466000Y01403000D01*
X01477000Y01414000D01*
Y01444000D02*
Y01455000D01*
X01463000Y01469000D02*
X01477000Y01455000D01*
Y01414000D02*
Y01430000D01*
Y01444000D01*
Y01430000D02*
Y01444000D01*
X01454000Y01397000D02*
X01460000D01*
X01451000Y01481000D02*
Y01737399D01*
X01434000Y01157000D02*
Y01223000D01*
X01452000Y01241000D01*
X01183798Y01625398D02*
X01191973Y01617223D01*
X01116973Y01625398D02*
X01183798D01*
X00610473Y01176648D02*
X00795228D01*
X00824230Y01205650D01*
D103*
X00931469Y01675626D02*
D03*
X01517142Y01269023D02*
D03*
X01284605Y01523277D02*
D03*
X01305814Y01451014D02*
D03*
X01056703Y01137578D02*
D03*
X01275512Y01675245D02*
D03*
X01259510D02*
D03*
X01243508D02*
D03*
X01227506D02*
D03*
X01211504D02*
D03*
X01195502D02*
D03*
X01179500D02*
D03*
X01163498D02*
D03*
X01147496D02*
D03*
X01131494D02*
D03*
X01075487Y01675626D02*
D03*
X01059485D02*
D03*
X01043483D02*
D03*
X01027481D02*
D03*
X01011479D02*
D03*
X00995477D02*
D03*
X00979475D02*
D03*
X00963473D02*
D03*
X00947471D02*
D03*
X01201420Y01524420D02*
D03*
X00865568Y01132879D02*
D03*
X01066042Y01259589D02*
D03*
X01265788Y01101916D02*
D03*
X01254788D02*
D03*
X01265788Y01112916D02*
D03*
X01254788D02*
D03*
X01283000Y01219500D02*
D03*
X01272000D02*
D03*
X01283000Y01230500D02*
D03*
X01272000D02*
D03*
X00903223Y01556148D02*
D03*
X01520973Y01261398D02*
D03*
X01564005Y01284005D02*
D03*
X01093216Y01263562D02*
D03*
X00785223Y01499398D02*
D03*
X01080223Y01203148D02*
D03*
X01102465Y01152640D02*
D03*
X00697473Y01289898D02*
D03*
X00627223Y01206148D02*
D03*
X00698223Y01264148D02*
D03*
D106*
X00580517Y01272198D02*
D03*
X00554176Y01215100D02*
D03*
X00828397Y01098502D02*
D03*
X00860107Y01151167D02*
D03*
X01024358Y01099438D02*
D03*
X01057338Y01151548D02*
D03*
X00596138Y01404874D02*
D03*
X00578090Y01486500D02*
D03*
X00762254Y01288796D02*
D03*
X00742950Y01289558D02*
D03*
X00603466Y01214850D02*
D03*
X00578696Y01215100D02*
D03*
X00784606Y01348232D02*
D03*
D108*
X00918223Y01653898D02*
D03*
X00922723Y01639898D02*
D03*
X01155695Y01655898D02*
D03*
X01171667D02*
D03*
X01187639D02*
D03*
X01203612D02*
D03*
X01219584D02*
D03*
X01235556D02*
D03*
X01251528D02*
D03*
X01267501D02*
D03*
X01283473D02*
D03*
X01139723D02*
D03*
X00939223Y01653898D02*
D03*
X01114223Y01652648D02*
D03*
X01104223Y01643398D02*
D03*
X01094973Y01652648D02*
D03*
X01082973Y01653898D02*
D03*
X01067001D02*
D03*
X01051028D02*
D03*
X01035056D02*
D03*
X01019084D02*
D03*
X01003112D02*
D03*
X00987140D02*
D03*
X00971167D02*
D03*
X00955195D02*
D03*
X01283462Y01571029D02*
D03*
Y01578649D02*
D03*
X00924306Y01509688D02*
D03*
X00548386Y01252259D02*
D03*
X01003871Y01152056D02*
D03*
X00994981D02*
D03*
X00799147Y01151167D02*
D03*
X00808037D02*
D03*
X00823277Y01090842D02*
D03*
Y01083222D02*
D03*
X00814387D02*
D03*
Y01090842D02*
D03*
X00804862Y01083222D02*
D03*
X00795337D02*
D03*
X00574802Y01401318D02*
D03*
X00596930Y01376090D02*
D03*
X00816680Y01515090D02*
D03*
X00633060Y01381220D02*
D03*
X00743646Y01239288D02*
D03*
X00759140Y01214142D02*
D03*
X00768538D02*
D03*
Y01221254D02*
D03*
X00759140D02*
D03*
X00796732Y01217698D02*
D03*
X00669000Y01290000D02*
D03*
X00609689Y01584288D02*
D03*
X00841689Y01574338D02*
D03*
X00621040Y01330960D02*
D03*
X01360170Y01284170D02*
D03*
X00745500Y01468840D02*
D03*
X00990673Y01082648D02*
D03*
X01000198D02*
D03*
X01009723Y01090268D02*
D03*
Y01082648D02*
D03*
X01018613D02*
D03*
Y01090268D02*
D03*
D111*
X01149604Y01153580D02*
D03*
X01191006D02*
D03*
X01177925Y01143547D02*
D03*
X01161415D02*
D03*
X01062842Y01077380D02*
D03*
X01084516D02*
D03*
X01095354D02*
D03*
X01073679D02*
D03*
X01060156Y01194420D02*
D03*
X01080900Y01185300D02*
D03*
X01207729Y01501829D02*
D03*
X01247130Y01515200D02*
D03*
X01276650Y01485680D02*
D03*
X00532930Y01474340D02*
D03*
X00554970Y01475880D02*
D03*
X00820739Y01695838D02*
D03*
X00725000Y01465000D02*
D03*
X00659590Y01291590D02*
D03*
D113*
X00535373Y01732148D02*
G03*
X00509973Y01706748I00000000J-00025400D01*
G01*
X01583227Y01724902D02*
G03*
X01564573Y01732148I-00018071J-00018887D01*
G01*
X01591229Y01706175D02*
G03*
X01583227Y01724902I-00025914J00000000D01*
G01*
X01564573Y01032148D02*
G03*
X01591229Y01057934I00000625J00026025D01*
G01*
X00509973Y01057548D02*
G03*
X00535373Y01032148I00025400J00000000D01*
G01*
X00509973Y01057548D02*
Y01062148D01*
X00535373Y01032148D02*
X00539973D01*
X01564573Y01032148D01*
X01591229Y01057934D02*
X01591229Y01706174D01*
X00535373Y01732148D02*
X01564573D01*
X00509973Y01702148D02*
Y01706748D01*
Y01062148D02*
Y01702148D01*
D114*
X01308151Y01689391D02*
D03*
X00906831Y01689604D02*
D03*
D115*
X00833628Y01193800D02*
D03*
Y01219200D02*
D03*
X00859028Y01193800D02*
D03*
Y01219200D02*
D03*
X00884428D02*
D03*
X00909828Y01193800D02*
D03*
Y01219200D02*
D03*
X00935228D02*
D03*
X00960628Y01193800D02*
D03*
Y01219200D02*
D03*
X00986028Y01193800D02*
D03*
Y01219200D02*
D03*
X01011428Y01193800D02*
D03*
Y01219200D02*
D03*
X00578358Y01533144D02*
D03*
Y01558544D02*
D03*
X00603758Y01533144D02*
D03*
Y01558544D02*
D03*
X00629158Y01533144D02*
D03*
Y01558544D02*
D03*
X00654558Y01533144D02*
D03*
Y01558544D02*
D03*
X00679958Y01533144D02*
D03*
Y01558544D02*
D03*
X00921871Y01553464D02*
D03*
Y01573464D02*
D03*
X00941871Y01553464D02*
D03*
X00941871Y01573464D02*
D03*
X00961871Y01553464D02*
D03*
X00961871Y01573464D02*
D03*
X00981871Y01553464D02*
D03*
Y01573464D02*
D03*
X01001871Y01553464D02*
D03*
Y01573464D02*
D03*
X01021871Y01553464D02*
D03*
Y01573464D02*
D03*
X01041871D02*
D03*
D116*
X00526208Y01455024D02*
D03*
Y01329524D02*
D03*
D117*
X01422400Y01239520D02*
D03*
X01432560Y01219200D02*
D03*
X01422400Y01198880D02*
D03*
X01432560Y01178560D02*
D03*
X01422400Y01158240D02*
D03*
X01402080Y01239520D02*
D03*
X01412240Y01219200D02*
D03*
X01402080Y01198880D02*
D03*
X01412240Y01178560D02*
D03*
X01402080Y01158240D02*
D03*
X01412240Y01137920D02*
D03*
X01381760Y01239520D02*
D03*
X01391920Y01219200D02*
D03*
X01381760Y01198880D02*
D03*
X01391920Y01178560D02*
D03*
X01381760Y01158240D02*
D03*
X01391920Y01137920D02*
D03*
X01381760Y01117600D02*
D03*
X01361440Y01239520D02*
D03*
X01371600Y01219200D02*
D03*
X01361440Y01198880D02*
D03*
X01371600Y01178560D02*
D03*
X01361440Y01158240D02*
D03*
X01371600Y01137920D02*
D03*
X01361440Y01117600D02*
D03*
X01444723Y01723648D02*
D03*
X01424723D02*
D03*
X01404723D02*
D03*
X01384723D02*
D03*
X01340473Y01416648D02*
D03*
X01344473Y01466648D02*
D03*
X01334973Y01456648D02*
D03*
Y01439148D02*
D03*
Y01476648D02*
D03*
Y01496648D02*
D03*
Y01516648D02*
D03*
Y01536648D02*
D03*
Y01556648D02*
D03*
Y01576648D02*
D03*
Y01596648D02*
D03*
Y01616648D02*
D03*
Y01636648D02*
D03*
Y01656648D02*
D03*
X01344473Y01666648D02*
D03*
Y01646648D02*
D03*
Y01626648D02*
D03*
Y01606648D02*
D03*
Y01586648D02*
D03*
Y01566648D02*
D03*
Y01546648D02*
D03*
Y01526648D02*
D03*
Y01506648D02*
D03*
Y01486648D02*
D03*
X01335473Y01110898D02*
D03*
Y01130898D02*
D03*
Y01150898D02*
D03*
X01344973Y01140898D02*
D03*
Y01120898D02*
D03*
Y01100898D02*
D03*
Y01160898D02*
D03*
Y01180898D02*
D03*
Y01200898D02*
D03*
Y01220898D02*
D03*
Y01240898D02*
D03*
X01335473Y01250898D02*
D03*
Y01230898D02*
D03*
Y01210898D02*
D03*
Y01190898D02*
D03*
Y01170898D02*
D03*
X00524723Y01487148D02*
D03*
Y01507148D02*
D03*
Y01527148D02*
D03*
Y01547148D02*
D03*
Y01567148D02*
D03*
Y01587148D02*
D03*
Y01607148D02*
D03*
Y01627148D02*
D03*
Y01647148D02*
D03*
Y01667148D02*
D03*
X00515223Y01677148D02*
D03*
Y01657148D02*
D03*
Y01637148D02*
D03*
Y01617148D02*
D03*
Y01597148D02*
D03*
Y01577148D02*
D03*
Y01557148D02*
D03*
Y01537148D02*
D03*
Y01517148D02*
D03*
Y01497148D02*
D03*
Y01477148D02*
D03*
X00515973Y01086398D02*
D03*
Y01106398D02*
D03*
Y01126398D02*
D03*
Y01146398D02*
D03*
Y01166398D02*
D03*
Y01186398D02*
D03*
Y01206398D02*
D03*
Y01226398D02*
D03*
Y01246398D02*
D03*
Y01266398D02*
D03*
Y01286398D02*
D03*
Y01306398D02*
D03*
X00525473Y01296398D02*
D03*
Y01276398D02*
D03*
Y01256398D02*
D03*
Y01236398D02*
D03*
Y01216398D02*
D03*
Y01196398D02*
D03*
Y01176398D02*
D03*
Y01156398D02*
D03*
Y01136398D02*
D03*
Y01116398D02*
D03*
Y01096398D02*
D03*
X00570473Y01726148D02*
D03*
X00590473D02*
D03*
X00610473D02*
D03*
X00630473D02*
D03*
X00650473D02*
D03*
X00670473D02*
D03*
X00690473D02*
D03*
X00710473D02*
D03*
X00730473D02*
D03*
X00750473D02*
D03*
X00770473D02*
D03*
X00790473D02*
D03*
X00810473D02*
D03*
X00830473D02*
D03*
X00850473D02*
D03*
X00870473D02*
D03*
X00890473D02*
D03*
X00910473D02*
D03*
X00930473D02*
D03*
X00950473D02*
D03*
X00970473D02*
D03*
X00990473D02*
D03*
X01010473D02*
D03*
X01030473D02*
D03*
X01050473D02*
D03*
X01070473D02*
D03*
X01090473D02*
D03*
X01110473D02*
D03*
X01130473D02*
D03*
X01150473D02*
D03*
X01170473D02*
D03*
X01190473D02*
D03*
X01210473D02*
D03*
X01230473D02*
D03*
X01250473D02*
D03*
X01270473D02*
D03*
X01290473D02*
D03*
X01310473D02*
D03*
X01330473D02*
D03*
X01320473Y01716648D02*
D03*
X01300473D02*
D03*
X01280473D02*
D03*
X01260473D02*
D03*
X01240473D02*
D03*
X01220473D02*
D03*
X01200473D02*
D03*
X01180473D02*
D03*
X01160473D02*
D03*
X01140473D02*
D03*
X01120473D02*
D03*
X01100473D02*
D03*
X01080473D02*
D03*
X01060473D02*
D03*
X01040473D02*
D03*
X01020473D02*
D03*
X01000473D02*
D03*
X00980473D02*
D03*
X00960473D02*
D03*
X00940473D02*
D03*
X00920473D02*
D03*
X00900473D02*
D03*
X00880473D02*
D03*
X00860473D02*
D03*
X00840473D02*
D03*
X00820473D02*
D03*
X00800473D02*
D03*
X00780473D02*
D03*
X00760473D02*
D03*
X00740473D02*
D03*
X00720473D02*
D03*
X00700473D02*
D03*
X00680473D02*
D03*
X00660473D02*
D03*
X00640473D02*
D03*
X00620473D02*
D03*
X00600473D02*
D03*
X00580473D02*
D03*
X01254723Y01047148D02*
D03*
X01234723D02*
D03*
X01214723D02*
D03*
X01194723D02*
D03*
X01174723D02*
D03*
X01154723D02*
D03*
X01134723D02*
D03*
X01114723D02*
D03*
X01094723D02*
D03*
X01074723D02*
D03*
X01054723D02*
D03*
X01034723D02*
D03*
X01014723D02*
D03*
X00994723D02*
D03*
X00974723D02*
D03*
X00954723D02*
D03*
X00934723D02*
D03*
X00914723D02*
D03*
X00894723D02*
D03*
X00874723D02*
D03*
X00854723D02*
D03*
X00834723D02*
D03*
X00814723D02*
D03*
X00794723D02*
D03*
X00774723D02*
D03*
X00754723D02*
D03*
X00734723D02*
D03*
X00714723D02*
D03*
X00694723D02*
D03*
X00674723D02*
D03*
X00654723D02*
D03*
X00634723D02*
D03*
X00614723D02*
D03*
X00594723D02*
D03*
X00574723D02*
D03*
X00564723Y01037648D02*
D03*
X00584723D02*
D03*
X00604723D02*
D03*
X00624723D02*
D03*
X00644723D02*
D03*
X00664723D02*
D03*
X00684723D02*
D03*
X00704723D02*
D03*
X00724723D02*
D03*
X00744723D02*
D03*
X00764723D02*
D03*
X00784723D02*
D03*
X00804723D02*
D03*
X00824723D02*
D03*
X00844723D02*
D03*
X00864723D02*
D03*
X00884723D02*
D03*
X00904723D02*
D03*
X00924723D02*
D03*
X00944723D02*
D03*
X00964723D02*
D03*
X00984723D02*
D03*
X01004723D02*
D03*
X01024723D02*
D03*
X01044723D02*
D03*
X01064723D02*
D03*
X01084723D02*
D03*
X01104723D02*
D03*
X01124723D02*
D03*
X01144723D02*
D03*
X01164723D02*
D03*
X01184723D02*
D03*
X01204723D02*
D03*
X01224723D02*
D03*
X01244723D02*
D03*
X01264723D02*
D03*
X00778327Y01560426D02*
D03*
X01278730Y01461480D02*
D03*
X01175385Y01250354D02*
D03*
X01143901Y01237793D02*
D03*
X01162558Y01250481D02*
D03*
X01171956Y01259244D02*
D03*
X01167003Y01263689D02*
D03*
X01139698Y01248068D02*
D03*
X01395000Y01685000D02*
D03*
X01153901Y01434504D02*
D03*
X00595702Y01351760D02*
D03*
X00981202Y01462444D02*
D03*
X01422146Y01458380D02*
D03*
X01064006Y01374560D02*
D03*
X00778510Y01283340D02*
D03*
X01063752Y01282612D02*
D03*
X00722122Y01327316D02*
D03*
X01129030Y01282612D02*
D03*
X01118870D02*
D03*
X01053846Y01334682D02*
D03*
X01194054Y01414438D02*
D03*
X01183900Y01334550D02*
D03*
X01168908Y01281850D02*
D03*
X01173988Y01294550D02*
D03*
X01203960Y01324522D02*
D03*
X01489202Y01333158D02*
D03*
X01401216Y01293183D02*
D03*
X01409216D02*
D03*
X01417216D02*
D03*
Y01317183D02*
D03*
X01335250Y01285000D02*
D03*
X01345750Y01290000D02*
D03*
X01425216Y01333183D02*
D03*
Y01349183D02*
D03*
X01203960Y01304456D02*
D03*
Y01294042D02*
D03*
X01193800Y01284390D02*
D03*
Y01294550D02*
D03*
Y01304710D02*
D03*
X01473200Y01389292D02*
D03*
Y01381164D02*
D03*
X01481328D02*
D03*
X01457198D02*
D03*
X01183900Y01374551D02*
D03*
X01163900D02*
D03*
X01173900D02*
D03*
X01183900Y01394551D02*
D03*
X01457216Y01333183D02*
D03*
X01473216D02*
D03*
Y01325183D02*
D03*
X01451610Y01559814D02*
D03*
X01425956D02*
D03*
X01456436Y01474724D02*
D03*
X01449578Y01484376D02*
D03*
X01449832Y01511808D02*
D03*
Y01528826D02*
D03*
X01403604Y01528064D02*
D03*
X01390904D02*
D03*
X01411224Y01477518D02*
D03*
X01397762Y01477772D02*
D03*
X01389888Y01485646D02*
D03*
X01404366Y01486154D02*
D03*
X01073900Y01384551D02*
D03*
X01063900Y01354550D02*
D03*
Y01344550D02*
D03*
Y01334550D02*
D03*
X00806704Y01208024D02*
D03*
Y01228598D02*
D03*
X01133750Y01294500D02*
D03*
X00876000Y01244000D02*
D03*
X00732000D02*
D03*
X01493774Y01170736D02*
D03*
X01535059Y01504000D02*
D03*
X01564427D02*
D03*
X01492979Y01177188D02*
D03*
X01520692Y01149121D02*
D03*
X01452500Y01263250D02*
D03*
X01489216Y01357183D02*
D03*
X01481216D02*
D03*
X01481187Y01349962D02*
D03*
X01489216Y01365183D02*
D03*
X01481216D02*
D03*
Y01373183D02*
D03*
X01489216D02*
D03*
X01489216Y01349183D02*
D03*
X01473216Y01365183D02*
D03*
Y01373183D02*
D03*
X01008799Y01401568D02*
D03*
X01015172Y01396939D02*
D03*
X01268750Y01480000D02*
D03*
X01183900Y01384551D02*
D03*
X01236810Y01465571D02*
D03*
X01409216Y01389183D02*
D03*
X01193800Y01434504D02*
D03*
X01163900Y01424551D02*
D03*
X01457216Y01357183D02*
D03*
X01457216Y01365183D02*
D03*
X01465216Y01373183D02*
D03*
X01465216Y01365183D02*
D03*
X01103900Y01354550D02*
D03*
X01073900Y01374551D02*
D03*
X01133900Y01324550D02*
D03*
X00698180Y01343340D02*
D03*
X01231042Y01401158D02*
D03*
X01173900Y01354550D02*
D03*
X01183900Y01303788D02*
D03*
Y01354550D02*
D03*
X01373468Y01377468D02*
D03*
X01473216Y01357183D02*
D03*
X01143901Y01384551D02*
D03*
X01365547Y01350788D02*
D03*
X01365191Y01359272D02*
D03*
X01457216Y01309183D02*
D03*
X01465216D02*
D03*
X01473216Y01301183D02*
D03*
X01417216Y01301183D02*
D03*
X01401216Y01389183D02*
D03*
X01417216Y01365183D02*
D03*
X01073900Y01394551D02*
D03*
X01063900D02*
D03*
Y01384551D02*
D03*
X01053900Y01414551D02*
D03*
X01015372Y01357189D02*
D03*
X01083900Y01394551D02*
D03*
X01093900Y01374551D02*
D03*
X01073900Y01344550D02*
D03*
X01093900Y01354550D02*
D03*
X00981497Y01330685D02*
D03*
X01004850Y01332000D02*
D03*
X01203900Y01284550D02*
D03*
X01253871Y01372743D02*
D03*
X01127690Y01475810D02*
D03*
X01005800Y01393750D02*
D03*
X01093900Y01284550D02*
D03*
X01230742Y01373743D02*
D03*
X01183948Y01314227D02*
D03*
X01173846Y01314277D02*
D03*
X01124000Y01294750D02*
D03*
X01083900Y01344550D02*
D03*
X01093900D02*
D03*
X01133900Y01314550D02*
D03*
X01153901D02*
D03*
X01134100Y01273800D02*
D03*
X01133900Y01334550D02*
D03*
X01113900Y01344550D02*
D03*
X01083900Y01384551D02*
D03*
X01073900Y01354550D02*
D03*
X01083900D02*
D03*
X01113850Y01304600D02*
D03*
X00722180Y01343340D02*
D03*
X00730180Y01335340D02*
D03*
X01093900Y01304550D02*
D03*
X01113900Y01314550D02*
D03*
X01063900Y01314042D02*
D03*
X01073900Y01314550D02*
D03*
X01083900D02*
D03*
X01093900Y01324550D02*
D03*
Y01314550D02*
D03*
X00730180Y01359340D02*
D03*
X01073900Y01334550D02*
D03*
X01083900D02*
D03*
X00746180Y01391340D02*
D03*
X00722180Y01375340D02*
D03*
X01043913Y01334386D02*
D03*
X00715930Y01254590D02*
D03*
X00710430Y01285090D02*
D03*
X00635430Y01372090D02*
D03*
X00682180Y01391340D02*
D03*
X00706680Y01441340D02*
D03*
X00711708Y01430020D02*
D03*
X00713680Y01441340D02*
D03*
X00572052Y01352070D02*
D03*
X00682180Y01343340D02*
D03*
X00690180D02*
D03*
X00730180D02*
D03*
X00706180Y01335340D02*
D03*
X00738180Y01343340D02*
D03*
X00730180Y01319340D02*
D03*
X00698180Y01335340D02*
D03*
X00690180Y01351340D02*
D03*
X00698180D02*
D03*
X00637430Y01318590D02*
D03*
X00690180Y01367340D02*
D03*
X00682180D02*
D03*
Y01359340D02*
D03*
Y01351340D02*
D03*
X00674180Y01327340D02*
D03*
X00715772Y01453642D02*
D03*
X00735580Y01430020D02*
D03*
X00709676Y01484122D02*
D03*
X00638810Y01464818D02*
D03*
X00690180Y01375340D02*
D03*
X00682180D02*
D03*
X00652780Y01408176D02*
D03*
X00687070Y01431290D02*
D03*
X00752094Y01430020D02*
D03*
X00729234Y01296162D02*
D03*
X00716430Y01298590D02*
D03*
X00762180Y01327340D02*
D03*
X00722180Y01359340D02*
D03*
X00706180Y01359340D02*
D03*
X00690180D02*
D03*
X00682180Y01327340D02*
D03*
X00674180Y01319340D02*
D03*
X01043900Y01444551D02*
D03*
X01193900Y01425059D02*
D03*
X01203900Y01394551D02*
D03*
X01153901Y01444551D02*
D03*
X01163138Y01314550D02*
D03*
X01163900Y01414551D02*
D03*
X01153901D02*
D03*
X01173900Y01384551D02*
D03*
X01143901Y01414551D02*
D03*
X01153901Y01404551D02*
D03*
X01113900Y01324550D02*
D03*
X01153901Y01384551D02*
D03*
X01113900Y01394551D02*
D03*
X01153901Y01354550D02*
D03*
X01143901Y01344550D02*
D03*
Y01354550D02*
D03*
X01133900Y01384551D02*
D03*
X01113900Y01374551D02*
D03*
X01133900D02*
D03*
X01055624Y01470152D02*
D03*
X01089712Y01473719D02*
D03*
X01165822Y01473959D02*
D03*
X01230492Y01331909D02*
D03*
X01191372Y01258989D02*
D03*
X01163900Y01304550D02*
D03*
X00722180Y01335340D02*
D03*
Y01351340D02*
D03*
X00706180Y01351340D02*
D03*
Y01343340D02*
D03*
X01103900Y01334550D02*
D03*
X01104000Y01384450D02*
D03*
X01093900Y01394551D02*
D03*
X01113900Y01404551D02*
D03*
X01133900D02*
D03*
X01143901D02*
D03*
X01114154Y01424551D02*
D03*
X01143901Y01394551D02*
D03*
X01133646Y01424551D02*
D03*
X01401216Y01301183D02*
D03*
X01409216D02*
D03*
X01401216Y01317183D02*
D03*
X01489216Y01309183D02*
D03*
X01465216Y01301183D02*
D03*
X01433216Y01317183D02*
D03*
X01417216Y01357183D02*
D03*
X01401216Y01333183D02*
D03*
X01489216Y01317183D02*
D03*
X01193392Y01314804D02*
D03*
X01433216Y01325183D02*
D03*
X01425216Y01317183D02*
D03*
Y01325183D02*
D03*
X01473216Y01317183D02*
D03*
X01173900Y01424551D02*
D03*
X01465216Y01317183D02*
D03*
X01231392Y01447927D02*
D03*
X01163900Y01354550D02*
D03*
X01481216Y01333183D02*
D03*
X01183900Y01425059D02*
D03*
X01158122Y01256139D02*
D03*
X01173900Y01303788D02*
D03*
X01153901Y01304550D02*
D03*
X01021982Y01451999D02*
D03*
X01113900Y01434551D02*
D03*
X01063900Y01424551D02*
D03*
X01188847Y01447165D02*
D03*
X01163900Y01455350D02*
D03*
X01183894Y01456055D02*
D03*
X01183900Y01414551D02*
D03*
X01158900Y01460900D02*
D03*
X01278750Y01455250D02*
D03*
X01481216Y01325183D02*
D03*
X01013795Y01424066D02*
D03*
X00766739Y01627338D02*
D03*
X00855739D02*
D03*
X01520750Y01380250D02*
D03*
X01526794Y01358206D02*
D03*
X01560500Y01334000D02*
D03*
X01550000Y01292000D02*
D03*
X01256000Y01278000D02*
D03*
Y01270000D02*
D03*
Y01261000D02*
D03*
X01264016Y01274000D02*
D03*
Y01265000D02*
D03*
X01187288Y01075916D02*
D03*
X01195288D02*
D03*
X01241288Y01074916D02*
D03*
X01234288Y01069916D02*
D03*
X01313288Y01166916D02*
D03*
X01304288D02*
D03*
X01295288D02*
D03*
X01244288Y01163916D02*
D03*
X01254288Y01166916D02*
D03*
X00768180Y01466090D02*
D03*
X01335473Y01367282D02*
D03*
Y01352750D02*
D03*
X01345750Y01312234D02*
D03*
X01335473D02*
D03*
X01341000Y01386750D02*
D03*
X01440000Y01580000D02*
D03*
X01420000D02*
D03*
X01395000D02*
D03*
Y01595000D02*
D03*
Y01608750D02*
D03*
Y01628000D02*
D03*
Y01640000D02*
D03*
Y01655000D02*
D03*
Y01670000D02*
D03*
Y01700000D02*
D03*
X01405000Y01705000D02*
D03*
X01430000D02*
D03*
X01450000D02*
D03*
X01345750Y01275000D02*
D03*
X01335473Y01260000D02*
D03*
X01350000Y01245000D02*
D03*
X01538224Y01365758D02*
D03*
X01544223Y01373148D02*
D03*
X01183948Y01324838D02*
D03*
X01193800Y01344588D02*
D03*
X01205992Y01349414D02*
D03*
X01194054Y01354494D02*
D03*
X01203706D02*
D03*
X01194054Y01384720D02*
D03*
Y01394626D02*
D03*
X01203960Y01384720D02*
D03*
Y01414438D02*
D03*
X01173988Y01394626D02*
D03*
X01209548Y01402246D02*
D03*
X01163900Y01404551D02*
D03*
X01173900Y01414551D02*
D03*
X01371891Y01309116D02*
D03*
X00986100Y01452150D02*
D03*
X00835406Y01501052D02*
D03*
X00699008Y01312584D02*
D03*
X00822452Y01473620D02*
D03*
X00794157Y01637132D02*
D03*
X00695452Y01307250D02*
D03*
X00790448Y01463456D02*
D03*
X00699262Y01301662D02*
D03*
X01163900Y01384551D02*
D03*
Y01394551D02*
D03*
X00738180Y01375340D02*
D03*
X00762181Y01407341D02*
D03*
X00738180Y01383340D02*
D03*
Y01391340D02*
D03*
X00730180Y01383340D02*
D03*
Y01375340D02*
D03*
X01083900Y01404551D02*
D03*
X01093900D02*
D03*
X01103900D02*
D03*
X01083900Y01414551D02*
D03*
X01093900Y01424551D02*
D03*
X01103645D02*
D03*
X01093900Y01414551D02*
D03*
X01084154Y01424551D02*
D03*
X00729742Y01407072D02*
D03*
X00730250Y01399198D02*
D03*
X01020318Y01282358D02*
D03*
X01178814Y01281850D02*
D03*
X00722180Y01391340D02*
D03*
X00706180Y01391340D02*
D03*
X00786892Y01392174D02*
D03*
X00746180Y01335340D02*
D03*
X00738180Y01351340D02*
D03*
X00746180Y01375340D02*
D03*
X00738180Y01335340D02*
D03*
Y01359340D02*
D03*
X00746180Y01383340D02*
D03*
X00784860Y01365504D02*
D03*
X00746180Y01359340D02*
D03*
Y01343340D02*
D03*
X00762180Y01335340D02*
D03*
X00762508Y01343318D02*
D03*
X00754180Y01335340D02*
D03*
Y01343340D02*
D03*
X00762180Y01359340D02*
D03*
X00730180Y01351340D02*
D03*
X00746180D02*
D03*
X01073900Y01324550D02*
D03*
X01083900D02*
D03*
X01489216Y01301183D02*
D03*
X01481216D02*
D03*
X01424940Y01286676D02*
D03*
X01433375Y01286493D02*
D03*
X01465216Y01325183D02*
D03*
X01465216Y01333183D02*
D03*
Y01357183D02*
D03*
Y01349183D02*
D03*
X01373468Y01333596D02*
D03*
X01441216Y01349183D02*
D03*
X01433216Y01349183D02*
D03*
X01409192Y01349414D02*
D03*
X01345750Y01335190D02*
D03*
X01457216Y01325183D02*
D03*
X01457216Y01317183D02*
D03*
X01441216D02*
D03*
Y01309183D02*
D03*
Y01325183D02*
D03*
X01433216Y01357183D02*
D03*
Y01365183D02*
D03*
X01433216Y01333183D02*
D03*
X01441216D02*
D03*
X01473216Y01349183D02*
D03*
X01230757Y01357122D02*
D03*
X01230630Y01349160D02*
D03*
X01441216Y01357183D02*
D03*
Y01365183D02*
D03*
X01425216Y01357183D02*
D03*
X01441216Y01381164D02*
D03*
X01425216Y01365183D02*
D03*
Y01373183D02*
D03*
X01417216Y01325183D02*
D03*
Y01333183D02*
D03*
Y01373183D02*
D03*
X01441216Y01373183D02*
D03*
X01040384Y01359320D02*
D03*
X01053900Y01294042D02*
D03*
Y01304550D02*
D03*
X01063900D02*
D03*
X01073900D02*
D03*
X01083900D02*
D03*
X01143901Y01324550D02*
D03*
X01063900Y01414805D02*
D03*
X01073646Y01424551D02*
D03*
X01073900Y01414805D02*
D03*
X01063900Y01404043D02*
D03*
X01497216Y01333158D02*
D03*
X01497216Y01317183D02*
D03*
X01497216Y01325183D02*
D03*
X00722180Y01383340D02*
D03*
X00730180Y01391340D02*
D03*
X00706180Y01375340D02*
D03*
Y01383340D02*
D03*
X00690180Y01391340D02*
D03*
X00698180Y01383340D02*
D03*
X01204214Y01315124D02*
D03*
X01163646Y01324296D02*
D03*
X01173900Y01344550D02*
D03*
X01183900D02*
D03*
X01133646Y01414551D02*
D03*
X01425090Y01392489D02*
D03*
X01163828Y01334428D02*
D03*
X01174408Y01334804D02*
D03*
X01153139D02*
D03*
X01163900Y01344550D02*
D03*
X01417216Y01389183D02*
D03*
X01433322Y01389038D02*
D03*
X01433216Y01373183D02*
D03*
X01120137Y01229983D02*
D03*
X00843744Y01467506D02*
D03*
X00720973Y01248398D02*
D03*
X00710723D02*
D03*
X00716026Y01278802D02*
D03*
D118*
X01422654Y01666914D02*
D03*
D119*
X00601599Y01232828D02*
D03*
X01112989Y01259739D02*
D03*
X01106171Y01236579D02*
D03*
D120*
X00938800Y01412500D02*
D03*
X00959500Y01392050D02*
D03*
X01099532Y01571268D02*
D03*
X01121349Y01594301D02*
D03*
X01143668Y01571268D02*
D03*
D121*
X00539973Y01702148D02*
D03*
Y01062148D02*
D03*
X01359973Y01702148D02*
D03*
D122*
X01031858Y01117973D02*
D03*
X01031858Y01127973D02*
D03*
X01021858Y01127973D02*
D03*
X01021858Y01117973D02*
D03*
X01026858Y01122973D02*
D03*
X00835897Y01116957D02*
D03*
X00835897Y01126957D02*
D03*
X00825897Y01126957D02*
D03*
X00825897Y01116957D02*
D03*
X00830897Y01121957D02*
D03*
M02*
