G04 Layer_Physical_Order=5*
G04 Layer_Color=8388736*
%FSAX44Y44*%
%MOMM*%
G71*
G01*
G75*
%ADD103C,0.6604*%
%ADD106C,0.6096*%
%ADD108C,0.7112*%
%ADD111C,0.7620*%
%ADD113C,1.0160*%
%ADD114C,1.4224*%
%ADD115C,1.3064*%
%ADD116C,1.7064*%
%ADD117C,0.6064*%
%ADD118C,0.8636*%
%ADD119C,0.7366*%
%ADD120C,0.8128*%
D103*
X00931469Y01675626D02*
D03*
X01517142Y01269023D02*
D03*
X01305814Y01451014D02*
D03*
X01056703Y01137578D02*
D03*
X01275512Y01675245D02*
D03*
X01259510D02*
D03*
X01243508D02*
D03*
X01227506D02*
D03*
X01211504D02*
D03*
X01195502D02*
D03*
X01179500D02*
D03*
X01163498D02*
D03*
X01147496D02*
D03*
X01131494D02*
D03*
X01075487Y01675626D02*
D03*
X01059485D02*
D03*
X01043483D02*
D03*
X01027481D02*
D03*
X01011479D02*
D03*
X00995477D02*
D03*
X00979475D02*
D03*
X00963473D02*
D03*
X00947471D02*
D03*
X01201420Y01524420D02*
D03*
X00865568Y01132879D02*
D03*
X01066232Y01269749D02*
D03*
X00903223Y01556148D02*
D03*
X01520973Y01261398D02*
D03*
X01564005Y01284005D02*
D03*
X01093150Y01271500D02*
D03*
X00785223Y01499398D02*
D03*
X01080223Y01203148D02*
D03*
X01128973Y01140648D02*
D03*
X00697473Y01289898D02*
D03*
X00685573Y01264048D02*
D03*
X00641193Y01206178D02*
D03*
D106*
X00580517Y01272198D02*
D03*
X00828397Y01098502D02*
D03*
X00860107Y01151167D02*
D03*
X01024358Y01099438D02*
D03*
X01057338Y01151548D02*
D03*
X00596138Y01404874D02*
D03*
X00743712Y01303020D02*
D03*
X00762000Y01302766D02*
D03*
X00774446Y01348232D02*
D03*
X00615223Y01184398D02*
D03*
D108*
X01145473Y01605648D02*
D03*
X01155473Y01605648D02*
D03*
X01150473Y01613148D02*
D03*
X01140473D02*
D03*
X01130473D02*
D03*
X01293973Y01622898D02*
D03*
Y01632898D02*
D03*
Y01642898D02*
D03*
X00924306Y01523150D02*
D03*
X00733679Y01166915D02*
D03*
X00743839Y01157263D02*
D03*
X00733679Y01157517D02*
D03*
X00743839Y01167042D02*
D03*
X00816770Y01504930D02*
D03*
X00725424Y01516834D02*
D03*
X00745500Y01468840D02*
D03*
X01135473Y01605148D02*
D03*
D111*
X00690723Y01513148D02*
D03*
X01200150Y01123862D02*
D03*
X00746125Y01129831D02*
D03*
X00734441D02*
D03*
Y01118465D02*
D03*
X00746125D02*
D03*
X00745871Y01107098D02*
D03*
X00734441D02*
D03*
X00917321Y01133768D02*
D03*
X00928751D02*
D03*
X00929005Y01145135D02*
D03*
X00917321D02*
D03*
Y01156501D02*
D03*
X00929005D02*
D03*
X01160187Y01221652D02*
D03*
X01181862D02*
D03*
X01171025D02*
D03*
X01165648Y01212762D02*
D03*
X01187323D02*
D03*
X01176486D02*
D03*
X01154811D02*
D03*
X01160187Y01203491D02*
D03*
X01181862D02*
D03*
X01171025D02*
D03*
X01062842Y01077380D02*
D03*
X01084516D02*
D03*
X01095354D02*
D03*
X01073679D02*
D03*
X00875326Y01077761D02*
D03*
X00897001D02*
D03*
X00886163D02*
D03*
X00864489D02*
D03*
X01461246Y01460754D02*
D03*
X00634000Y01415000D02*
D03*
X01190038Y01133416D02*
D03*
Y01123916D02*
D03*
Y01114416D02*
D03*
X01208500Y01229500D02*
D03*
X01243500Y01216500D02*
D03*
X01233750D02*
D03*
X01223750D02*
D03*
X00988150Y01391750D02*
D03*
X00981542Y01431812D02*
D03*
X01060526Y01214740D02*
D03*
X01080750Y01213300D02*
D03*
X01208141Y01481509D02*
D03*
X01226350Y01495900D02*
D03*
X00602680Y01391090D02*
D03*
X00820739Y01695838D02*
D03*
X01256050Y01466850D02*
D03*
X00725000Y01465000D02*
D03*
X00610330Y01296670D02*
D03*
X00659590Y01291590D02*
D03*
X01124966Y01213016D02*
D03*
X01192723Y01221648D02*
D03*
D113*
X00535373Y01732148D02*
G03*
X00509973Y01706748I00000000J-00025400D01*
G01*
X01583227Y01724902D02*
G03*
X01564573Y01732148I-00018071J-00018887D01*
G01*
X01591229Y01706175D02*
G03*
X01583227Y01724902I-00025914J00000000D01*
G01*
X01564573Y01032148D02*
G03*
X01591229Y01057934I00000625J00026025D01*
G01*
X00509973Y01057548D02*
G03*
X00535373Y01032148I00025400J00000000D01*
G01*
X00509973Y01057548D02*
Y01062148D01*
X00535373Y01032148D02*
X00539973D01*
X01564573Y01032148D01*
X01591229Y01057934D02*
X01591229Y01706174D01*
X00535373Y01732148D02*
X01564573D01*
X00509973Y01702148D02*
Y01706748D01*
Y01062148D02*
Y01702148D01*
D114*
X01308151Y01689391D02*
D03*
X00906831Y01689604D02*
D03*
D115*
X00833628Y01219200D02*
D03*
X00859028D02*
D03*
X00884428Y01193800D02*
D03*
Y01219200D02*
D03*
X00909828Y01193800D02*
D03*
Y01219200D02*
D03*
X00935228Y01193800D02*
D03*
Y01219200D02*
D03*
X00960628Y01193800D02*
D03*
Y01219200D02*
D03*
X00986028D02*
D03*
X01011428D02*
D03*
X00578358Y01533144D02*
D03*
X00603758D02*
D03*
Y01558544D02*
D03*
X00629158Y01533144D02*
D03*
X00654558D02*
D03*
X00679958D02*
D03*
Y01558544D02*
D03*
X00921871Y01553464D02*
D03*
X00941871Y01553464D02*
D03*
X00961871D02*
D03*
X00981871Y01553464D02*
D03*
X01001871D02*
D03*
X01021871D02*
D03*
X01041871D02*
D03*
D116*
X00526208Y01455024D02*
D03*
Y01329524D02*
D03*
D117*
X01483586Y01279282D02*
D03*
X00778327Y01560426D02*
D03*
X01295908Y01102145D02*
D03*
X01278730Y01461480D02*
D03*
X01175385Y01250354D02*
D03*
X01143901Y01237793D02*
D03*
X01162558Y01250481D02*
D03*
X01171956Y01259244D02*
D03*
X01167003Y01263689D02*
D03*
X01139698Y01248068D02*
D03*
X01153901Y01434504D02*
D03*
X00981202Y01462444D02*
D03*
X01422146Y01458380D02*
D03*
X01064006Y01374560D02*
D03*
X00778510Y01283340D02*
D03*
X01063752Y01282612D02*
D03*
X00722122Y01327316D02*
D03*
X01129030Y01282612D02*
D03*
X01118870D02*
D03*
X01053846Y01334682D02*
D03*
X01194054Y01414438D02*
D03*
X01183900Y01334550D02*
D03*
X01168908Y01281850D02*
D03*
X01173988Y01294550D02*
D03*
X01203960Y01324522D02*
D03*
X01489202Y01333158D02*
D03*
X01321000Y01283000D02*
D03*
X01425216Y01333183D02*
D03*
Y01349183D02*
D03*
X01203960Y01304456D02*
D03*
Y01294042D02*
D03*
X01193800Y01284390D02*
D03*
Y01294550D02*
D03*
Y01304710D02*
D03*
X01473200Y01389292D02*
D03*
Y01381164D02*
D03*
X01481328D02*
D03*
X01457198D02*
D03*
X01183900Y01374551D02*
D03*
X01163900D02*
D03*
X01173900D02*
D03*
X01183900Y01394551D02*
D03*
X01457216Y01333183D02*
D03*
X01473216D02*
D03*
Y01325183D02*
D03*
X01317887Y01529207D02*
D03*
X01325519Y01534795D02*
D03*
Y01523619D02*
D03*
X01325392Y01512101D02*
D03*
X01318014Y01517689D02*
D03*
X01027400Y01428242D02*
D03*
X01073900Y01384551D02*
D03*
X01063900Y01354550D02*
D03*
Y01344550D02*
D03*
Y01334550D02*
D03*
X00757858Y01264270D02*
D03*
X00768289Y01266114D02*
D03*
X00786000Y01258000D02*
D03*
X00777000Y01252000D02*
D03*
X00779000Y01262000D02*
D03*
X00769730Y01256000D02*
D03*
X00876000Y01244000D02*
D03*
X00732000D02*
D03*
X01493774Y01170736D02*
D03*
X01535059Y01504000D02*
D03*
X01564427D02*
D03*
X01492979Y01177188D02*
D03*
X01520692Y01149121D02*
D03*
X01481216Y01309183D02*
D03*
Y01357183D02*
D03*
X01481187Y01349962D02*
D03*
X01481216Y01365183D02*
D03*
Y01373183D02*
D03*
X01473216Y01365183D02*
D03*
Y01373183D02*
D03*
X01268750Y01480000D02*
D03*
X01183900Y01384551D02*
D03*
X01220582Y01373703D02*
D03*
X01236810Y01465571D02*
D03*
X01442235Y01407602D02*
D03*
X01193800Y01434504D02*
D03*
X01163900Y01424551D02*
D03*
X01457216Y01357183D02*
D03*
X01457216Y01365183D02*
D03*
X01462428Y01408364D02*
D03*
X01103900Y01354550D02*
D03*
X01073900Y01374551D02*
D03*
X01133900Y01324550D02*
D03*
X00698180Y01343340D02*
D03*
X01173900Y01354550D02*
D03*
X01183900Y01303788D02*
D03*
Y01354550D02*
D03*
X01473216Y01357183D02*
D03*
X01113900Y01384551D02*
D03*
X01444624Y01271585D02*
D03*
X01457216Y01309183D02*
D03*
X01394879Y01357788D02*
D03*
X01383629Y01333288D02*
D03*
Y01377538D02*
D03*
X01120659Y01243953D02*
D03*
X01073900Y01394551D02*
D03*
X01063900D02*
D03*
X01031900Y01334350D02*
D03*
X01083900Y01394551D02*
D03*
X01033750Y01394950D02*
D03*
X01083900Y01374551D02*
D03*
X01093900Y01354550D02*
D03*
X00995951Y01330685D02*
D03*
X01240012Y01373662D02*
D03*
X01127950Y01465650D02*
D03*
X01183948Y01314227D02*
D03*
X01220332Y01331899D02*
D03*
X01174154Y01324550D02*
D03*
X01173846Y01314277D02*
D03*
X01113900Y01354550D02*
D03*
X01103900Y01344550D02*
D03*
X01083900D02*
D03*
X01093900D02*
D03*
X01133900Y01314550D02*
D03*
X01143901D02*
D03*
X01153901D02*
D03*
X01134100Y01273800D02*
D03*
X01133900Y01344550D02*
D03*
X01113900Y01334550D02*
D03*
X01083900Y01384551D02*
D03*
X01073900Y01354550D02*
D03*
X01083900D02*
D03*
X01113850Y01304600D02*
D03*
X00722180Y01343340D02*
D03*
X00730180Y01335340D02*
D03*
X01093900Y01304550D02*
D03*
X01113900Y01314550D02*
D03*
X01103900Y01304550D02*
D03*
X01063900Y01314042D02*
D03*
X01073900Y01314550D02*
D03*
X01093900Y01324550D02*
D03*
Y01314550D02*
D03*
X00730180Y01359340D02*
D03*
X01073900Y01334550D02*
D03*
X01083900D02*
D03*
X00746180Y01391340D02*
D03*
X00722180Y01375340D02*
D03*
X00715930Y01254590D02*
D03*
X00710430Y01285090D02*
D03*
X00635430Y01372090D02*
D03*
X00706680Y01441340D02*
D03*
X00713680D02*
D03*
X00711708Y01419860D02*
D03*
X00716534Y01308354D02*
D03*
X00690180Y01343340D02*
D03*
X00730180D02*
D03*
X00738180D02*
D03*
X00698180Y01335340D02*
D03*
X00690180D02*
D03*
Y01351340D02*
D03*
X00698180D02*
D03*
X00690180Y01367340D02*
D03*
X00682180D02*
D03*
Y01359340D02*
D03*
Y01351340D02*
D03*
X00674180Y01327340D02*
D03*
X00715772Y01453642D02*
D03*
X00690180Y01375340D02*
D03*
X00662940Y01408176D02*
D03*
X00686816Y01421130D02*
D03*
X00735580Y01419860D02*
D03*
X00729742Y01306068D02*
D03*
X00722180Y01359340D02*
D03*
X00690180Y01359340D02*
D03*
X01183900Y01404043D02*
D03*
X01163138Y01314550D02*
D03*
X01153901Y01414551D02*
D03*
X01143901D02*
D03*
X01153901Y01404551D02*
D03*
X01103900Y01324550D02*
D03*
X01093900Y01334550D02*
D03*
X01153901Y01394551D02*
D03*
X01143901Y01334550D02*
D03*
X01153139Y01344804D02*
D03*
X01153901Y01374551D02*
D03*
X01113900Y01394551D02*
D03*
X01103900Y01374551D02*
D03*
X01055782Y01459399D02*
D03*
X01089882Y01459749D02*
D03*
X01166082Y01463799D02*
D03*
X01191332Y01268895D02*
D03*
X01030082Y01281999D02*
D03*
X01027000Y01401000D02*
D03*
X01010582Y01451999D02*
D03*
X00722180Y01335340D02*
D03*
Y01351340D02*
D03*
X00706180Y01351340D02*
D03*
Y01343340D02*
D03*
X01104000Y01384450D02*
D03*
X01103900Y01394551D02*
D03*
X01093900Y01384551D02*
D03*
X01113900Y01404551D02*
D03*
X01133900Y01394551D02*
D03*
X01143901Y01404551D02*
D03*
X01114154Y01424551D02*
D03*
X01143901Y01394551D02*
D03*
X01133646Y01424551D02*
D03*
X01425216Y01309183D02*
D03*
X01473216D02*
D03*
X01481216Y01317183D02*
D03*
X01433216D02*
D03*
X01489216Y01317183D02*
D03*
X01222375Y01447927D02*
D03*
X01433216Y01325183D02*
D03*
X01425216Y01317183D02*
D03*
Y01325183D02*
D03*
X01220882Y01401282D02*
D03*
X01473216Y01317183D02*
D03*
X01173900Y01424551D02*
D03*
X01465216Y01317183D02*
D03*
X01163900Y01354550D02*
D03*
X01481216Y01333183D02*
D03*
X01183900Y01425059D02*
D03*
X01158032Y01266299D02*
D03*
X01173900Y01303788D02*
D03*
X01153901Y01304550D02*
D03*
X01063900Y01424551D02*
D03*
X01188847Y01447165D02*
D03*
X01163900Y01455350D02*
D03*
X01183894Y01456055D02*
D03*
X01183900Y01414551D02*
D03*
X01158900Y01460900D02*
D03*
X01278750Y01455250D02*
D03*
X01481216Y01325183D02*
D03*
X00766739Y01627338D02*
D03*
X00855739D02*
D03*
X00575000Y01505000D02*
D03*
X00585000D02*
D03*
X00595000D02*
D03*
X00605000D02*
D03*
X00615000Y01500000D02*
D03*
X00605000Y01495000D02*
D03*
X00595000D02*
D03*
X00585000D02*
D03*
X00575000D02*
D03*
X00605000Y01485000D02*
D03*
X00615000Y01490000D02*
D03*
Y01480000D02*
D03*
X00605000Y01475000D02*
D03*
X01301242Y01107606D02*
D03*
X01312037Y01107733D02*
D03*
X01306576Y01102145D02*
D03*
X01317625D02*
D03*
X01423000Y01264000D02*
D03*
X01434000D02*
D03*
X01442000D02*
D03*
X01317000Y01252000D02*
D03*
X01325000Y01261000D02*
D03*
X01323000Y01272000D02*
D03*
X01317000Y01311984D02*
D03*
X01354000Y01359000D02*
D03*
Y01351000D02*
D03*
X01520750Y01380250D02*
D03*
X01526794Y01358206D02*
D03*
X01553000Y01308000D02*
D03*
X01549000Y01300000D02*
D03*
X01535000Y01299000D02*
D03*
X01560500Y01334000D02*
D03*
X00680750Y01308100D02*
D03*
X00614220Y01252220D02*
D03*
X00768180Y01466090D02*
D03*
X01407216Y01286933D02*
D03*
X01183948Y01324838D02*
D03*
X01193800Y01344588D02*
D03*
X01205992Y01349414D02*
D03*
X01194054Y01354494D02*
D03*
X01203706D02*
D03*
X01194054Y01384720D02*
D03*
Y01394626D02*
D03*
X01203960Y01384720D02*
D03*
Y01414438D02*
D03*
X01173988Y01394626D02*
D03*
X01209548Y01402246D02*
D03*
X01163900Y01404551D02*
D03*
X01173900Y01414551D02*
D03*
X01371891Y01309116D02*
D03*
X01019050Y01401568D02*
D03*
X00986100Y01452150D02*
D03*
X00835406Y01501052D02*
D03*
X00699008Y01312584D02*
D03*
X00822452Y01473620D02*
D03*
X00794157Y01637132D02*
D03*
X00695452Y01307250D02*
D03*
X00790448Y01463456D02*
D03*
X00699262Y01301662D02*
D03*
X01163900Y01384551D02*
D03*
Y01394551D02*
D03*
X00738180Y01375340D02*
D03*
Y01383340D02*
D03*
Y01391340D02*
D03*
X00730180Y01383340D02*
D03*
Y01375340D02*
D03*
X01083900Y01404551D02*
D03*
X01093900D02*
D03*
X01103900D02*
D03*
X01073900D02*
D03*
X01083900Y01414551D02*
D03*
X01093900Y01424551D02*
D03*
X01103900Y01414551D02*
D03*
X01103645Y01424551D02*
D03*
X01093900Y01414551D02*
D03*
X00752094Y01419860D02*
D03*
X00730250Y01399198D02*
D03*
X01178814Y01281850D02*
D03*
X00722180Y01391340D02*
D03*
X00706180Y01391340D02*
D03*
X00776732Y01392174D02*
D03*
X00746180Y01335340D02*
D03*
X00738180Y01351340D02*
D03*
X00746180Y01375340D02*
D03*
X00738180Y01335340D02*
D03*
Y01359340D02*
D03*
X00746180Y01383340D02*
D03*
X00774700Y01365504D02*
D03*
X00746180Y01359340D02*
D03*
Y01343340D02*
D03*
X00762508Y01343318D02*
D03*
X00730180Y01351340D02*
D03*
X00746180D02*
D03*
X01025532Y01357149D02*
D03*
X01063900Y01324550D02*
D03*
X01073900D02*
D03*
X01083900D02*
D03*
X01465216Y01325183D02*
D03*
X01465216Y01357183D02*
D03*
X01433216Y01349183D02*
D03*
X01409192Y01349414D02*
D03*
X01457216Y01325183D02*
D03*
X01457216Y01317183D02*
D03*
X01441216D02*
D03*
X01433216Y01309183D02*
D03*
X01441216Y01325183D02*
D03*
X01433216Y01357183D02*
D03*
Y01365183D02*
D03*
X01433216Y01333183D02*
D03*
X01441216D02*
D03*
X01473216Y01349183D02*
D03*
X01220216Y01357122D02*
D03*
X01220470Y01349160D02*
D03*
X01441216Y01357183D02*
D03*
X01394879Y01373295D02*
D03*
X01425216Y01357183D02*
D03*
X01425216Y01365183D02*
D03*
Y01373183D02*
D03*
X01417216Y01325183D02*
D03*
Y01333183D02*
D03*
X01441216Y01373183D02*
D03*
X01040384Y01359320D02*
D03*
X01053900Y01294042D02*
D03*
X01063900Y01304550D02*
D03*
X01073900D02*
D03*
X01083900D02*
D03*
X01063900Y01414805D02*
D03*
X01073646Y01424551D02*
D03*
X01073900Y01414805D02*
D03*
X01063900Y01404043D02*
D03*
X00722180Y01383340D02*
D03*
X00730180Y01391340D02*
D03*
X00706180Y01375340D02*
D03*
Y01383340D02*
D03*
X00690180Y01391340D02*
D03*
X00788924Y01266610D02*
D03*
X01204214Y01315124D02*
D03*
X01163646Y01324296D02*
D03*
X01173900Y01344550D02*
D03*
X01133646Y01414551D02*
D03*
X01144155Y01424551D02*
D03*
X01163828Y01334428D02*
D03*
X01174408Y01334804D02*
D03*
X01163900Y01344550D02*
D03*
X01433322Y01389038D02*
D03*
X01433216Y01373183D02*
D03*
X00843744Y01467506D02*
D03*
X00720973Y01248398D02*
D03*
X00710723D02*
D03*
X00716026Y01278802D02*
D03*
D118*
X01429639Y01692822D02*
D03*
X01441196Y01677963D02*
D03*
D119*
X00706374Y01525270D02*
D03*
X01112549Y01269899D02*
D03*
X01106249Y01250549D02*
D03*
D120*
X01121349Y01484151D02*
D03*
X01099082Y01507268D02*
D03*
X01144532D02*
D03*
M02*
